<?xml version="1.0" encoding="utf-8"?>
<!-- Generator: Adobe Illustrator 27.7.0, SVG Export Plug-In . SVG Version: 6.00 Build 0)  -->
<svg version="1.1" id="Layer_1" xmlns="http://www.w3.org/2000/svg" xmlns:xlink="http://www.w3.org/1999/xlink" x="0px" y="0px"
	 width="389.1px" height="346.9px" viewBox="0 0 389.1 346.9" style="enable-background:new 0 0 389.1 346.9;" xml:space="preserve"
	>
<style type="text/css">
	.st0{fill:#E5E5E5;}
</style>
<path class="st0" d="M365.6,100.2l-44.2-53.1c-0.4-0.5-1.3-0.2-1.3,0.4l-0.8,22.9c-0.1,1.7-1.9,2.8-3.4,2
	c-14.4-7.8-73.4-34.6-128.2,15.7c-1.9,1.8-1.7,4.9,0.4,6.5l25.2,18.1c5,3.6,11.9,3.2,16.4-1.1c34.1-32.1,70.2-24.3,80.6-21.1
	c1.5,0.5,2.1,2.2,1.3,3.5l-11.2,19.2c-0.4,0.6,0.2,1.4,0.9,1.3l63.6-12.2C365.8,102.1,366.2,101,365.6,100.2z"/>
<path class="st0" d="M381.1,235.1l-7.5,47.8c-0.1,0.5-0.7,0.6-0.9,0.2l-8.7-13.5c-0.7-1-2.2-1-2.8,0c-5.9,9.9-31.8,47.2-82.8,36.6
	c-1.8-0.4-2.8-2.3-2.1-4l8.7-19.9c1.7-4,6-6.2,10.2-5.2c32.1,7.1,51-10.6,56.1-16.3c0.7-0.8,0.5-2.1-0.5-2.6l-13.6-7.5
	c-0.4-0.2-0.4-0.9,0.1-1.1l42.7-15.5C380.6,233.8,381.2,234.4,381.1,235.1z"/>
<g>
	<g>
		<path class="st0" d="M35.5,128.8h10.3c0.3,0,0.6,0.1,0.8,0.3s0.3,0.5,0.3,0.8c0,0.3-0.1,0.6-0.3,0.8c-0.2,0.2-0.5,0.3-0.8,0.3
			h-9.3l0.3-0.5v7.3l-0.3-0.3h8.1c0.3,0,0.6,0.1,0.8,0.3c0.2,0.2,0.3,0.5,0.3,0.8c0,0.3-0.1,0.6-0.3,0.8c-0.2,0.2-0.5,0.3-0.8,0.3
			h-8l0.2-0.3v7.5l-0.2-0.2h9.3c0.3,0,0.6,0.1,0.8,0.3s0.3,0.5,0.3,0.8c0,0.3-0.1,0.6-0.3,0.8s-0.5,0.3-0.8,0.3H35.5
			c-0.3,0-0.6-0.1-0.8-0.3s-0.3-0.5-0.3-0.8V130c0-0.3,0.1-0.6,0.3-0.8S35.2,128.8,35.5,128.8z"/>
		<path class="st0" d="M57.9,133.7c1.3,0,2.3,0.3,3.1,0.8c0.8,0.5,1.3,1.3,1.6,2.2s0.5,1.9,0.5,3.1v8.1c0,0.3-0.1,0.6-0.3,0.8
			c-0.2,0.2-0.5,0.3-0.8,0.3c-0.3,0-0.6-0.1-0.8-0.3c-0.2-0.2-0.3-0.5-0.3-0.8v-8.1c0-0.7-0.1-1.4-0.3-2c-0.2-0.6-0.6-1.1-1.1-1.4
			c-0.5-0.4-1.2-0.5-2.1-0.5c-0.8,0-1.6,0.2-2.2,0.5c-0.7,0.4-1.2,0.8-1.6,1.4c-0.4,0.6-0.6,1.3-0.6,2v8.1c0,0.3-0.1,0.6-0.3,0.8
			s-0.5,0.3-0.8,0.3c-0.3,0-0.6-0.1-0.8-0.3c-0.2-0.2-0.3-0.5-0.3-0.8v-12.6c0-0.3,0.1-0.6,0.3-0.9c0.2-0.2,0.5-0.3,0.8-0.3
			c0.3,0,0.6,0.1,0.8,0.3c0.2,0.2,0.3,0.5,0.3,0.9v2l-0.6,0.6c0.1-0.5,0.3-1,0.7-1.5c0.3-0.5,0.8-1,1.3-1.4c0.5-0.4,1.1-0.7,1.7-1
			C56.6,133.8,57.2,133.7,57.9,133.7z"/>
		<path class="st0" d="M66.8,134.2h6.8c0.3,0,0.6,0.1,0.8,0.3c0.2,0.2,0.3,0.5,0.3,0.8c0,0.3-0.1,0.5-0.3,0.7s-0.5,0.3-0.8,0.3h-6.8
			c-0.3,0-0.5-0.1-0.8-0.3c-0.2-0.2-0.3-0.5-0.3-0.8c0-0.3,0.1-0.6,0.3-0.8S66.5,134.2,66.8,134.2z M69.9,130.2
			c0.3,0,0.6,0.1,0.8,0.3s0.3,0.5,0.3,0.8v14c0,0.5,0.1,0.8,0.2,1s0.3,0.4,0.5,0.5c0.2,0.1,0.4,0.1,0.7,0.1c0.2,0,0.4,0,0.5-0.1
			s0.3-0.1,0.5-0.1c0.2,0,0.4,0.1,0.5,0.3c0.2,0.2,0.2,0.4,0.2,0.7c0,0.3-0.2,0.6-0.6,0.9c-0.4,0.2-0.9,0.4-1.4,0.4
			c-0.3,0-0.6,0-1-0.1c-0.4,0-0.8-0.2-1.2-0.4c-0.4-0.2-0.7-0.6-1-1.1c-0.3-0.5-0.4-1.2-0.4-2.1v-14.1c0-0.3,0.1-0.6,0.3-0.8
			S69.5,130.2,69.9,130.2z"/>
		<path class="st0" d="M84.9,149.4c-1.6,0-2.9-0.3-4.1-1c-1.2-0.7-2.1-1.6-2.7-2.7c-0.6-1.1-1-2.5-1-4c0-1.7,0.3-3.1,1-4.3
			s1.5-2.1,2.6-2.7c1.1-0.6,2.2-0.9,3.4-0.9c0.9,0,1.7,0.2,2.6,0.5c0.8,0.3,1.6,0.8,2.2,1.5c0.6,0.6,1.1,1.4,1.5,2.3s0.6,1.9,0.6,3
			c0,0.3-0.1,0.6-0.3,0.8s-0.5,0.3-0.8,0.3H78.5l-0.5-2h11.1l-0.5,0.4v-0.6c-0.1-0.8-0.3-1.5-0.8-2c-0.5-0.6-1-1-1.7-1.3
			c-0.6-0.3-1.3-0.5-2-0.5c-0.6,0-1.2,0.1-1.7,0.3c-0.6,0.2-1.1,0.5-1.5,1c-0.5,0.4-0.8,1-1.1,1.7s-0.4,1.6-0.4,2.6
			c0,1.1,0.2,2.1,0.7,3c0.5,0.9,1.1,1.5,1.9,2c0.8,0.5,1.8,0.7,2.8,0.7c0.7,0,1.3-0.1,1.8-0.3c0.5-0.2,0.9-0.4,1.3-0.7
			c0.4-0.3,0.7-0.5,0.9-0.8c0.3-0.2,0.5-0.3,0.8-0.3c0.3,0,0.5,0.1,0.7,0.3c0.2,0.2,0.3,0.4,0.3,0.7c0,0.3-0.2,0.6-0.5,0.9
			c-0.6,0.6-1.3,1.1-2.2,1.6C86.9,149.1,85.9,149.4,84.9,149.4z"/>
		<path class="st0" d="M95.7,149.1c-0.3,0-0.6-0.1-0.8-0.3c-0.2-0.2-0.3-0.5-0.3-0.8v-12.6c0-0.3,0.1-0.6,0.3-0.9
			c0.2-0.2,0.5-0.3,0.8-0.3c0.3,0,0.6,0.1,0.8,0.3c0.2,0.2,0.3,0.5,0.3,0.9v3.8l-0.3-0.6c0.1-0.6,0.3-1.2,0.6-1.8
			c0.3-0.6,0.7-1.1,1.1-1.5c0.5-0.5,1-0.8,1.6-1.1c0.6-0.3,1.3-0.4,2-0.4c0.4,0,0.8,0.1,1.2,0.3c0.4,0.2,0.5,0.5,0.5,0.9
			c0,0.4-0.1,0.7-0.3,0.9c-0.2,0.2-0.5,0.3-0.7,0.3c-0.3,0-0.5-0.1-0.7-0.2s-0.5-0.2-0.9-0.2c-0.5,0-1,0.1-1.4,0.4
			c-0.5,0.3-0.9,0.6-1.3,1.1c-0.4,0.5-0.7,1-1,1.6c-0.2,0.6-0.4,1.3-0.4,2v7c0,0.3-0.1,0.6-0.3,0.8S96,149.1,95.7,149.1z"/>
		<path class="st0" d="M126.5,133.9c0.3,0,0.6,0.1,0.8,0.3c0.2,0.2,0.3,0.5,0.3,0.8v12.8c0,0.3-0.1,0.6-0.3,0.8
			c-0.2,0.2-0.5,0.3-0.8,0.3c-0.3,0-0.6-0.1-0.9-0.3c-0.2-0.2-0.3-0.5-0.3-0.8v-2.8l0.6-0.1c0,0.4-0.1,0.9-0.4,1.4
			c-0.3,0.5-0.7,1-1.2,1.4s-1.1,0.8-1.8,1.1c-0.7,0.3-1.4,0.4-2.2,0.4c-1.3,0-2.5-0.3-3.6-1s-1.9-1.6-2.5-2.8
			c-0.6-1.2-0.9-2.5-0.9-4c0-1.5,0.3-2.9,0.9-4s1.4-2.1,2.5-2.8s2.2-1,3.5-1c0.8,0,1.6,0.1,2.3,0.4c0.7,0.3,1.3,0.6,1.9,1.1
			c0.5,0.5,0.9,1,1.2,1.5c0.3,0.6,0.4,1.1,0.4,1.7l-0.8-0.2v-3.2c0-0.3,0.1-0.6,0.3-0.8C125.9,134,126.2,133.9,126.5,133.9z
			 M120.5,147.2c1,0,1.8-0.3,2.6-0.8c0.7-0.5,1.3-1.2,1.7-2s0.6-1.8,0.6-2.9c0-1.1-0.2-2-0.6-2.9c-0.4-0.9-1-1.5-1.7-2
			c-0.7-0.5-1.6-0.8-2.6-0.8c-0.9,0-1.8,0.2-2.5,0.7c-0.7,0.5-1.3,1.2-1.8,2c-0.4,0.9-0.6,1.8-0.6,2.9c0,1.1,0.2,2.1,0.6,2.9
			c0.4,0.9,1,1.5,1.7,2C118.7,147,119.6,147.2,120.5,147.2z"/>
		<path class="st0" d="M139.3,134.2h6.8c0.3,0,0.6,0.1,0.8,0.3c0.2,0.2,0.3,0.5,0.3,0.8c0,0.3-0.1,0.5-0.3,0.7s-0.5,0.3-0.8,0.3
			h-6.8c-0.3,0-0.5-0.1-0.8-0.3c-0.2-0.2-0.3-0.5-0.3-0.8c0-0.3,0.1-0.6,0.3-0.8S139.1,134.2,139.3,134.2z M142.4,130.2
			c0.3,0,0.6,0.1,0.8,0.3s0.3,0.5,0.3,0.8v14c0,0.5,0.1,0.8,0.2,1s0.3,0.4,0.5,0.5c0.2,0.1,0.4,0.1,0.7,0.1c0.2,0,0.4,0,0.5-0.1
			s0.3-0.1,0.5-0.1c0.2,0,0.4,0.1,0.5,0.3c0.2,0.2,0.2,0.4,0.2,0.7c0,0.3-0.2,0.6-0.6,0.9c-0.4,0.2-0.9,0.4-1.4,0.4
			c-0.3,0-0.6,0-1-0.1c-0.4,0-0.8-0.2-1.2-0.4c-0.4-0.2-0.7-0.6-1-1.1c-0.3-0.5-0.4-1.2-0.4-2.1v-14.1c0-0.3,0.1-0.6,0.3-0.8
			S142.1,130.2,142.4,130.2z"/>
		<path class="st0" d="M162.8,133.9c0.3,0,0.6,0.1,0.8,0.3c0.2,0.2,0.3,0.5,0.3,0.8v12.8c0,0.3-0.1,0.6-0.3,0.8
			c-0.2,0.2-0.5,0.3-0.8,0.3c-0.3,0-0.6-0.1-0.9-0.3c-0.2-0.2-0.3-0.5-0.3-0.8v-2.8l0.6-0.1c0,0.4-0.1,0.9-0.4,1.4
			c-0.3,0.5-0.7,1-1.2,1.4s-1.1,0.8-1.8,1.1c-0.7,0.3-1.4,0.4-2.2,0.4c-1.3,0-2.5-0.3-3.6-1s-1.9-1.6-2.5-2.8
			c-0.6-1.2-0.9-2.5-0.9-4c0-1.5,0.3-2.9,0.9-4s1.4-2.1,2.5-2.8s2.2-1,3.5-1c0.8,0,1.6,0.1,2.3,0.4c0.7,0.3,1.3,0.6,1.9,1.1
			c0.5,0.5,0.9,1,1.2,1.5c0.3,0.6,0.4,1.1,0.4,1.7l-0.8-0.2v-3.2c0-0.3,0.1-0.6,0.3-0.8C162.2,134,162.5,133.9,162.8,133.9z
			 M156.8,147.2c1,0,1.8-0.3,2.6-0.8c0.7-0.5,1.3-1.2,1.7-2s0.6-1.8,0.6-2.9c0-1.1-0.2-2-0.6-2.9c-0.4-0.9-1-1.5-1.7-2
			c-0.7-0.5-1.6-0.8-2.6-0.8c-0.9,0-1.8,0.2-2.5,0.7c-0.7,0.5-1.3,1.2-1.8,2c-0.4,0.9-0.6,1.8-0.6,2.9c0,1.1,0.2,2.1,0.6,2.9
			c0.4,0.9,1,1.5,1.7,2C155,147,155.9,147.2,156.8,147.2z"/>
		<path class="st0" d="M167.4,146.7c-0.2-0.3-0.2-0.5-0.2-0.8c0-0.3,0.2-0.5,0.5-0.7c0.2-0.1,0.4-0.2,0.7-0.2c0.3,0,0.5,0.1,0.7,0.4
			c0.5,0.6,1.2,1.1,1.9,1.5s1.5,0.6,2.6,0.6c0.4,0,0.9-0.1,1.4-0.2c0.5-0.1,0.9-0.4,1.2-0.7c0.3-0.3,0.5-0.8,0.5-1.3
			c0-0.5-0.2-1-0.5-1.3c-0.3-0.3-0.8-0.6-1.3-0.8c-0.5-0.2-1.1-0.4-1.7-0.5c-0.6-0.2-1.3-0.4-1.9-0.6c-0.6-0.2-1.2-0.5-1.7-0.8
			c-0.5-0.3-0.9-0.8-1.2-1.3c-0.3-0.5-0.4-1.1-0.4-1.9c0-0.9,0.2-1.6,0.7-2.3c0.5-0.6,1.1-1.1,1.9-1.5c0.8-0.3,1.7-0.5,2.6-0.5
			c0.5,0,1.1,0.1,1.7,0.2c0.6,0.1,1.2,0.3,1.7,0.6c0.6,0.3,1.1,0.7,1.5,1.2c0.2,0.2,0.3,0.4,0.3,0.7c0,0.3-0.1,0.6-0.4,0.8
			c-0.2,0.2-0.4,0.2-0.7,0.2c-0.3,0-0.5-0.1-0.7-0.3c-0.4-0.5-0.9-0.9-1.6-1.1c-0.6-0.3-1.3-0.4-2-0.4c-0.4,0-0.9,0.1-1.3,0.2
			c-0.4,0.1-0.8,0.4-1.1,0.7c-0.3,0.3-0.4,0.7-0.4,1.3c0,0.5,0.2,0.9,0.5,1.3c0.3,0.3,0.8,0.6,1.3,0.8c0.6,0.2,1.2,0.4,1.9,0.6
			c0.6,0.2,1.2,0.3,1.8,0.5c0.6,0.2,1.1,0.5,1.6,0.8c0.5,0.3,0.8,0.7,1.1,1.3c0.3,0.5,0.4,1.2,0.4,1.9c0,0.9-0.3,1.7-0.8,2.3
			c-0.5,0.6-1.2,1.1-2,1.5c-0.8,0.3-1.7,0.5-2.7,0.5c-1.1,0-2.1-0.2-3.2-0.6S168.1,147.7,167.4,146.7z"/>
		<path class="st0" d="M183.4,149.1c-0.3,0-0.6-0.1-0.9-0.3c-0.2-0.2-0.3-0.5-0.3-0.8v-19.1c0-0.3,0.1-0.6,0.3-0.8
			c0.2-0.2,0.5-0.3,0.9-0.3c0.3,0,0.6,0.1,0.8,0.3c0.2,0.2,0.3,0.5,0.3,0.8v19.1c0,0.3-0.1,0.6-0.3,0.8S183.7,149.1,183.4,149.1z
			 M193,134c0.3,0,0.6,0.1,0.8,0.4s0.3,0.5,0.3,0.8c0,0.3-0.2,0.6-0.5,0.9l-9.4,8.2l-0.1-2.7l8-7.1C192.4,134.1,192.7,134,193,134z
			 M193.3,149c-0.3,0-0.6-0.1-0.9-0.4l-6.2-6.6l1.7-1.6l6.1,6.6c0.2,0.3,0.3,0.5,0.3,0.9c0,0.3-0.1,0.6-0.4,0.8S193.6,149,193.3,149
			z"/>
		<path class="st0" d="M213.1,133.8c1.3,0,2.3,0.3,3,0.8c0.7,0.6,1.3,1.3,1.6,2.2c0.3,0.9,0.5,1.9,0.5,3.1v7.9
			c0,0.3-0.1,0.6-0.3,0.8c-0.2,0.2-0.5,0.3-0.8,0.3c-0.3,0-0.6-0.1-0.8-0.3c-0.2-0.2-0.3-0.5-0.3-0.8v-7.9c0-0.7-0.1-1.4-0.3-2
			c-0.2-0.6-0.6-1.1-1.1-1.4c-0.5-0.4-1.2-0.5-2-0.5c-0.8,0-1.5,0.2-2.2,0.5c-0.7,0.4-1.2,0.8-1.6,1.4c-0.4,0.6-0.6,1.3-0.6,2v7.9
			c0,0.3-0.1,0.6-0.3,0.8s-0.5,0.3-0.8,0.3c-0.3,0-0.6-0.1-0.8-0.3c-0.2-0.2-0.3-0.5-0.3-0.8v-19.1c0-0.3,0.1-0.6,0.3-0.8
			c0.2-0.2,0.5-0.3,0.8-0.3c0.3,0,0.6,0.1,0.8,0.3c0.2,0.2,0.3,0.5,0.3,0.8v8.6l-0.6,0.6c0.1-0.5,0.3-1,0.6-1.5
			c0.3-0.5,0.7-1,1.2-1.4c0.5-0.4,1.1-0.7,1.7-1C211.8,134,212.4,133.8,213.1,133.8z"/>
		<path class="st0" d="M229.4,149.4c-1.6,0-2.9-0.3-4.1-1c-1.2-0.7-2.1-1.6-2.7-2.7c-0.6-1.1-1-2.5-1-4c0-1.7,0.3-3.1,1-4.3
			s1.5-2.1,2.6-2.7c1.1-0.6,2.2-0.9,3.4-0.9c0.9,0,1.7,0.2,2.6,0.5c0.8,0.3,1.6,0.8,2.2,1.5c0.6,0.6,1.1,1.4,1.5,2.3
			c0.4,0.9,0.6,1.9,0.6,3c0,0.3-0.1,0.6-0.3,0.8c-0.2,0.2-0.5,0.3-0.8,0.3H223l-0.5-2h11.1l-0.5,0.4v-0.6c-0.1-0.8-0.3-1.5-0.8-2
			c-0.5-0.6-1-1-1.7-1.3c-0.6-0.3-1.3-0.5-2-0.5c-0.6,0-1.2,0.1-1.7,0.3c-0.6,0.2-1.1,0.5-1.5,1c-0.5,0.4-0.8,1-1.1,1.7
			s-0.4,1.6-0.4,2.6c0,1.1,0.2,2.1,0.7,3c0.5,0.9,1.1,1.5,1.9,2c0.8,0.5,1.8,0.7,2.8,0.7c0.7,0,1.3-0.1,1.8-0.3
			c0.5-0.2,0.9-0.4,1.3-0.7c0.4-0.3,0.7-0.5,0.9-0.8c0.3-0.2,0.5-0.3,0.8-0.3c0.3,0,0.5,0.1,0.7,0.3c0.2,0.2,0.3,0.4,0.3,0.7
			c0,0.3-0.2,0.6-0.5,0.9c-0.6,0.6-1.3,1.1-2.2,1.6C231.4,149.1,230.5,149.4,229.4,149.4z"/>
		<path class="st0" d="M240.3,149.1c-0.3,0-0.6-0.1-0.8-0.3c-0.2-0.2-0.3-0.5-0.3-0.8v-12.6c0-0.3,0.1-0.6,0.3-0.9
			c0.2-0.2,0.5-0.3,0.8-0.3c0.3,0,0.6,0.1,0.8,0.3c0.2,0.2,0.3,0.5,0.3,0.9v3.8l-0.3-0.6c0.1-0.6,0.3-1.2,0.6-1.8
			c0.3-0.6,0.7-1.1,1.1-1.5s1-0.8,1.6-1.1c0.6-0.3,1.3-0.4,2-0.4c0.4,0,0.8,0.1,1.2,0.3c0.4,0.2,0.5,0.5,0.5,0.9
			c0,0.4-0.1,0.7-0.3,0.9s-0.5,0.3-0.7,0.3c-0.3,0-0.5-0.1-0.7-0.2c-0.2-0.1-0.5-0.2-0.9-0.2c-0.5,0-1,0.1-1.4,0.4
			c-0.5,0.3-0.9,0.6-1.3,1.1s-0.7,1-1,1.6c-0.2,0.6-0.4,1.3-0.4,2v7c0,0.3-0.1,0.6-0.3,0.8C240.9,149,240.6,149.1,240.3,149.1z"/>
		<path class="st0" d="M257.7,149.4c-1.6,0-2.9-0.3-4.1-1s-2.1-1.6-2.7-2.7c-0.6-1.1-1-2.5-1-4c0-1.7,0.3-3.1,1-4.3s1.5-2.1,2.6-2.7
			c1.1-0.6,2.2-0.9,3.4-0.9c0.9,0,1.8,0.2,2.6,0.5c0.8,0.3,1.6,0.8,2.2,1.5c0.6,0.6,1.2,1.4,1.5,2.3s0.6,1.9,0.6,3
			c0,0.3-0.1,0.6-0.3,0.8c-0.2,0.2-0.5,0.3-0.8,0.3h-11.5l-0.5-2h11.1l-0.5,0.4v-0.6c-0.1-0.8-0.3-1.5-0.8-2c-0.5-0.6-1-1-1.7-1.3
			c-0.6-0.3-1.3-0.5-2-0.5c-0.6,0-1.2,0.1-1.7,0.3c-0.6,0.2-1.1,0.5-1.5,1c-0.5,0.4-0.8,1-1.1,1.7s-0.4,1.6-0.4,2.6
			c0,1.1,0.2,2.1,0.7,3s1.1,1.5,1.9,2c0.8,0.5,1.8,0.7,2.8,0.7c0.7,0,1.3-0.1,1.8-0.3c0.5-0.2,0.9-0.4,1.3-0.7
			c0.4-0.3,0.7-0.5,0.9-0.8c0.3-0.2,0.5-0.3,0.8-0.3c0.3,0,0.5,0.1,0.7,0.3c0.2,0.2,0.3,0.4,0.3,0.7c0,0.3-0.2,0.6-0.5,0.9
			c-0.6,0.6-1.3,1.1-2.2,1.6C259.7,149.1,258.7,149.4,257.7,149.4z"/>
	</g>
</g>
<g>
	<g>
		<path class="st0" d="M40.3,288.1c-1.4,0-2.7-0.2-3.8-0.6c-1.1-0.4-2.1-1.1-3.1-2c-0.1-0.1-0.2-0.3-0.3-0.4s-0.1-0.4-0.1-0.6
			c0-0.3,0.1-0.6,0.3-0.8c0.2-0.2,0.5-0.4,0.8-0.4c0.3,0,0.5,0.1,0.7,0.3c0.8,0.7,1.6,1.3,2.5,1.7c0.9,0.4,1.9,0.6,3,0.6
			c0.9,0,1.6-0.1,2.3-0.4c0.7-0.3,1.2-0.6,1.6-1.1c0.4-0.5,0.6-1,0.6-1.7c0-0.8-0.2-1.4-0.7-1.9c-0.4-0.5-1-0.9-1.8-1.2
			c-0.8-0.3-1.6-0.6-2.7-0.9c-0.9-0.2-1.7-0.5-2.5-0.8c-0.7-0.3-1.4-0.7-1.9-1.1c-0.6-0.5-1-1-1.3-1.7c-0.3-0.6-0.4-1.4-0.4-2.3
			c0-1.1,0.3-2.1,0.9-2.9s1.4-1.5,2.4-1.9c1-0.5,2.2-0.7,3.6-0.7c1.2,0,2.3,0.2,3.3,0.6s1.9,0.9,2.5,1.6c0.4,0.4,0.6,0.7,0.6,1.1
			c0,0.3-0.1,0.5-0.4,0.8c-0.2,0.2-0.5,0.4-0.8,0.4c-0.2,0-0.4-0.1-0.6-0.2c-0.3-0.4-0.7-0.7-1.3-1c-0.5-0.3-1.1-0.5-1.7-0.7
			c-0.6-0.2-1.2-0.3-1.8-0.3c-0.9,0-1.7,0.1-2.3,0.4c-0.7,0.3-1.2,0.6-1.6,1.1c-0.4,0.5-0.6,1-0.6,1.7c0,0.7,0.2,1.3,0.6,1.8
			c0.4,0.5,1,0.9,1.7,1.2c0.7,0.3,1.5,0.6,2.4,0.8c0.9,0.2,1.8,0.5,2.6,0.8c0.8,0.3,1.5,0.7,2.1,1.1s1,1,1.3,1.7
			c0.3,0.7,0.5,1.5,0.5,2.5c0,1.1-0.3,2-0.9,2.8c-0.6,0.8-1.4,1.5-2.5,2S41.6,288.1,40.3,288.1z"/>
		<path class="st0" d="M57.5,288.1c-1.6,0-2.9-0.3-4.1-1c-1.2-0.7-2.1-1.6-2.7-2.7c-0.6-1.1-1-2.5-1-4c0-1.7,0.3-3.1,1-4.3
			s1.5-2.1,2.6-2.7c1.1-0.6,2.2-0.9,3.4-0.9c0.9,0,1.7,0.2,2.6,0.5c0.8,0.3,1.6,0.8,2.2,1.5c0.6,0.6,1.1,1.4,1.5,2.3s0.6,1.9,0.6,3
			c0,0.3-0.1,0.6-0.3,0.8s-0.5,0.3-0.8,0.3H51.1l-0.5-2h11.1l-0.5,0.4v-0.6c-0.1-0.8-0.3-1.5-0.8-2c-0.5-0.6-1-1-1.7-1.3
			c-0.6-0.3-1.3-0.5-2-0.5c-0.6,0-1.2,0.1-1.7,0.3c-0.6,0.2-1.1,0.5-1.5,1c-0.5,0.4-0.8,1-1.1,1.7s-0.4,1.6-0.4,2.6
			c0,1.1,0.2,2.1,0.7,3c0.5,0.9,1.1,1.5,1.9,2c0.8,0.5,1.8,0.7,2.8,0.7c0.7,0,1.3-0.1,1.8-0.3c0.5-0.2,0.9-0.4,1.3-0.7
			c0.4-0.3,0.7-0.5,0.9-0.8c0.3-0.2,0.5-0.3,0.8-0.3c0.3,0,0.5,0.1,0.7,0.3c0.2,0.2,0.3,0.4,0.3,0.7c0,0.3-0.2,0.6-0.5,0.9
			c-0.6,0.6-1.3,1.1-2.2,1.6C59.5,287.8,58.6,288.1,57.5,288.1z"/>
		<path class="st0" d="M69.8,286.6c0,0.3-0.1,0.6-0.3,0.8s-0.5,0.3-0.8,0.3s-0.6-0.1-0.8-0.3c-0.2-0.2-0.3-0.5-0.3-0.8v-19.1
			c0-0.3,0.1-0.6,0.3-0.8c0.2-0.2,0.5-0.3,0.8-0.3c0.3,0,0.6,0.1,0.8,0.3c0.2,0.2,0.3,0.5,0.3,0.8V286.6z"/>
		<path class="st0" d="M81.2,288.1c-1.6,0-2.9-0.3-4.1-1c-1.2-0.7-2.1-1.6-2.7-2.7c-0.6-1.1-1-2.5-1-4c0-1.7,0.3-3.1,1-4.3
			s1.5-2.1,2.6-2.7c1.1-0.6,2.2-0.9,3.4-0.9c0.9,0,1.7,0.2,2.6,0.5c0.8,0.3,1.6,0.8,2.2,1.5c0.6,0.6,1.1,1.4,1.5,2.3s0.6,1.9,0.6,3
			c0,0.3-0.1,0.6-0.3,0.8s-0.5,0.3-0.8,0.3H74.8l-0.5-2h11.1l-0.5,0.4v-0.6c-0.1-0.8-0.3-1.5-0.8-2c-0.5-0.6-1-1-1.7-1.3
			c-0.6-0.3-1.3-0.5-2-0.5c-0.6,0-1.2,0.1-1.7,0.3c-0.6,0.2-1.1,0.5-1.5,1c-0.5,0.4-0.8,1-1.1,1.7s-0.4,1.6-0.4,2.6
			c0,1.1,0.2,2.1,0.7,3c0.5,0.9,1.1,1.5,1.9,2c0.8,0.5,1.8,0.7,2.8,0.7c0.7,0,1.3-0.1,1.8-0.3c0.5-0.2,0.9-0.4,1.3-0.7
			c0.4-0.3,0.7-0.5,0.9-0.8c0.3-0.2,0.5-0.3,0.8-0.3c0.3,0,0.5,0.1,0.7,0.3c0.2,0.2,0.3,0.4,0.3,0.7c0,0.3-0.2,0.6-0.5,0.9
			c-0.6,0.6-1.3,1.1-2.2,1.6C83.2,287.8,82.2,288.1,81.2,288.1z"/>
		<path class="st0" d="M97.5,272.4c1,0,1.9,0.1,2.7,0.3c0.8,0.2,1.4,0.5,1.9,0.9c0.5,0.4,0.7,0.8,0.7,1.2c0,0.3-0.1,0.5-0.3,0.8
			c-0.2,0.2-0.4,0.3-0.7,0.3c-0.3,0-0.5-0.1-0.6-0.2c-0.2-0.1-0.3-0.2-0.5-0.4s-0.3-0.3-0.6-0.4c-0.2-0.1-0.6-0.2-1-0.3
			c-0.4-0.1-0.9-0.1-1.3-0.1c-1.1,0-2,0.3-2.8,0.8c-0.8,0.5-1.4,1.2-1.9,2c-0.5,0.9-0.7,1.8-0.7,2.9c0,1.1,0.2,2,0.7,2.9
			c0.4,0.9,1.1,1.5,1.9,2c0.8,0.5,1.7,0.8,2.8,0.8c0.7,0,1.2-0.1,1.6-0.2c0.4-0.1,0.7-0.3,1-0.4c0.3-0.2,0.6-0.4,0.8-0.6
			c0.2-0.2,0.4-0.3,0.8-0.3c0.3,0,0.6,0.1,0.8,0.3c0.2,0.2,0.3,0.5,0.3,0.8c0,0.4-0.2,0.7-0.7,1.1c-0.5,0.4-1.1,0.7-2,1
			c-0.8,0.3-1.8,0.4-2.8,0.4c-1.5,0-2.8-0.3-3.9-1s-2-1.6-2.6-2.8c-0.6-1.2-0.9-2.5-0.9-4c0-1.5,0.3-2.8,0.9-4
			c0.6-1.2,1.5-2.1,2.6-2.8C94.7,272.8,96,272.4,97.5,272.4z"/>
		<path class="st0" d="M105.3,272.9h6.8c0.3,0,0.6,0.1,0.8,0.3c0.2,0.2,0.3,0.5,0.3,0.8c0,0.3-0.1,0.5-0.3,0.7s-0.5,0.3-0.8,0.3
			h-6.8c-0.3,0-0.5-0.1-0.8-0.3c-0.2-0.2-0.3-0.5-0.3-0.8c0-0.3,0.1-0.6,0.3-0.8S105,272.9,105.3,272.9z M108.4,268.9
			c0.3,0,0.6,0.1,0.8,0.3s0.3,0.5,0.3,0.8v14c0,0.5,0.1,0.8,0.2,1s0.3,0.4,0.5,0.5c0.2,0.1,0.4,0.1,0.7,0.1c0.2,0,0.4,0,0.5-0.1
			s0.3-0.1,0.5-0.1c0.2,0,0.4,0.1,0.5,0.3c0.2,0.2,0.2,0.4,0.2,0.7c0,0.3-0.2,0.6-0.6,0.9c-0.4,0.2-0.9,0.4-1.4,0.4
			c-0.3,0-0.6,0-1-0.1c-0.4,0-0.8-0.2-1.2-0.4c-0.4-0.2-0.7-0.6-1-1.1c-0.3-0.5-0.4-1.2-0.4-2.1v-14.1c0-0.3,0.1-0.6,0.3-0.8
			S108,268.9,108.4,268.9z"/>
		<path class="st0" d="M136.8,272.6c0.3,0,0.6,0.1,0.8,0.3c0.2,0.2,0.3,0.5,0.3,0.8v12.8c0,0.3-0.1,0.6-0.3,0.8
			c-0.2,0.2-0.5,0.3-0.8,0.3c-0.3,0-0.6-0.1-0.9-0.3c-0.2-0.2-0.3-0.5-0.3-0.8v-2.8l0.6-0.1c0,0.4-0.1,0.9-0.4,1.4
			c-0.3,0.5-0.7,1-1.2,1.4s-1.1,0.8-1.8,1.1c-0.7,0.3-1.4,0.4-2.2,0.4c-1.3,0-2.5-0.3-3.6-1s-1.9-1.6-2.5-2.8
			c-0.6-1.2-0.9-2.5-0.9-4c0-1.5,0.3-2.9,0.9-4s1.4-2.1,2.5-2.8s2.2-1,3.5-1c0.8,0,1.6,0.1,2.3,0.4c0.7,0.3,1.3,0.6,1.9,1.1
			c0.5,0.5,0.9,1,1.2,1.5c0.3,0.6,0.4,1.1,0.4,1.7l-0.8-0.2v-3.2c0-0.3,0.1-0.6,0.3-0.8C136.1,272.8,136.4,272.6,136.8,272.6z
			 M130.8,285.9c1,0,1.8-0.3,2.6-0.8c0.7-0.5,1.3-1.2,1.7-2s0.6-1.8,0.6-2.9c0-1.1-0.2-2-0.6-2.9c-0.4-0.9-1-1.5-1.7-2
			c-0.7-0.5-1.6-0.8-2.6-0.8c-0.9,0-1.8,0.2-2.5,0.7c-0.7,0.5-1.3,1.2-1.8,2c-0.4,0.9-0.6,1.8-0.6,2.9c0,1.1,0.2,2.1,0.6,2.9
			c0.4,0.9,1,1.5,1.7,2C129,285.7,129.8,285.9,130.8,285.9z"/>
		<path class="st0" d="M162.5,266.3c0.3,0,0.6,0.1,0.8,0.3c0.2,0.2,0.3,0.5,0.3,0.9v19.1c0,0.3-0.1,0.6-0.3,0.8
			c-0.2,0.2-0.5,0.3-0.8,0.3c-0.3,0-0.6-0.1-0.9-0.3c-0.2-0.2-0.3-0.5-0.3-0.8v-2.8l0.6-0.2c0,0.4-0.1,0.9-0.4,1.4
			c-0.3,0.5-0.7,1-1.2,1.5c-0.5,0.5-1.1,0.8-1.8,1.1c-0.7,0.3-1.4,0.4-2.2,0.4c-1.3,0-2.5-0.3-3.5-1c-1-0.7-1.9-1.6-2.5-2.8
			s-0.9-2.5-0.9-4c0-1.5,0.3-2.9,0.9-4.1c0.6-1.2,1.4-2.1,2.5-2.8s2.2-1,3.5-1c0.8,0,1.6,0.1,2.3,0.4c0.7,0.3,1.3,0.6,1.9,1.1
			c0.5,0.5,1,1,1.3,1.5c0.3,0.6,0.4,1.1,0.4,1.7l-0.8-0.2v-9.5c0-0.3,0.1-0.6,0.3-0.8C161.9,266.4,162.2,266.3,162.5,266.3z
			 M156.6,285.9c1,0,1.8-0.2,2.6-0.7c0.7-0.5,1.3-1.2,1.7-2c0.4-0.9,0.6-1.8,0.6-2.9c0-1.1-0.2-2.1-0.6-2.9c-0.4-0.9-1-1.5-1.7-2
			c-0.7-0.5-1.6-0.7-2.6-0.7c-0.9,0-1.8,0.2-2.5,0.7c-0.7,0.5-1.3,1.2-1.8,2c-0.4,0.9-0.6,1.8-0.6,2.9c0,1.1,0.2,2,0.6,2.9
			s1,1.5,1.8,2C154.8,285.7,155.6,285.9,156.6,285.9z"/>
		<path class="st0" d="M179.2,272.8c0.3,0,0.6,0.1,0.8,0.3c0.2,0.2,0.3,0.5,0.3,0.9v7.9c0,2-0.5,3.5-1.6,4.5
			c-1.1,1.1-2.6,1.6-4.6,1.6c-1.9,0-3.4-0.5-4.5-1.6c-1.1-1.1-1.6-2.6-1.6-4.5V274c0-0.3,0.1-0.6,0.3-0.9c0.2-0.2,0.5-0.3,0.8-0.3
			c0.3,0,0.6,0.1,0.8,0.3c0.2,0.2,0.3,0.5,0.3,0.9v7.9c0,1.3,0.3,2.3,1,3c0.7,0.7,1.6,1,2.8,1c1.2,0,2.2-0.3,2.9-1
			c0.7-0.7,1-1.7,1-3V274c0-0.3,0.1-0.6,0.3-0.9C178.6,272.9,178.9,272.8,179.2,272.8z"/>
		<path class="st0" d="M191.6,288.1c-1.6,0-2.9-0.3-4.1-1c-1.2-0.7-2.1-1.6-2.7-2.7c-0.6-1.1-1-2.5-1-4c0-1.7,0.3-3.1,1-4.3
			s1.5-2.1,2.6-2.7c1.1-0.6,2.2-0.9,3.4-0.9c0.9,0,1.7,0.2,2.6,0.5c0.8,0.3,1.6,0.8,2.2,1.5c0.6,0.6,1.1,1.4,1.5,2.3s0.6,1.9,0.6,3
			c0,0.3-0.1,0.6-0.3,0.8s-0.5,0.3-0.8,0.3h-11.5l-0.5-2h11.1l-0.5,0.4v-0.6c-0.1-0.8-0.3-1.5-0.8-2c-0.5-0.6-1-1-1.7-1.3
			c-0.6-0.3-1.3-0.5-2-0.5c-0.6,0-1.2,0.1-1.7,0.3c-0.6,0.2-1.1,0.5-1.5,1c-0.5,0.4-0.8,1-1.1,1.7s-0.4,1.6-0.4,2.6
			c0,1.1,0.2,2.1,0.7,3c0.5,0.9,1.1,1.5,1.9,2c0.8,0.5,1.8,0.7,2.8,0.7c0.7,0,1.3-0.1,1.8-0.3c0.5-0.2,0.9-0.4,1.3-0.7
			c0.4-0.3,0.7-0.5,0.9-0.8c0.3-0.2,0.5-0.3,0.8-0.3c0.3,0,0.5,0.1,0.7,0.3c0.2,0.2,0.3,0.4,0.3,0.7c0,0.3-0.2,0.6-0.5,0.9
			c-0.6,0.6-1.3,1.1-2.2,1.6C193.6,287.8,192.7,288.1,191.6,288.1z"/>
		<path class="st0" d="M221.6,266.3c0.3,0,0.6,0.1,0.8,0.3c0.2,0.2,0.3,0.5,0.3,0.9v19.1c0,0.3-0.1,0.6-0.3,0.8
			c-0.2,0.2-0.5,0.3-0.8,0.3c-0.3,0-0.6-0.1-0.9-0.3c-0.2-0.2-0.3-0.5-0.3-0.8v-2.8l0.6-0.2c0,0.4-0.1,0.9-0.4,1.4
			c-0.3,0.5-0.7,1-1.2,1.5c-0.5,0.5-1.1,0.8-1.8,1.1c-0.7,0.3-1.4,0.4-2.2,0.4c-1.3,0-2.5-0.3-3.5-1c-1-0.7-1.9-1.6-2.5-2.8
			s-0.9-2.5-0.9-4c0-1.5,0.3-2.9,0.9-4.1c0.6-1.2,1.4-2.1,2.5-2.8s2.2-1,3.5-1c0.8,0,1.6,0.1,2.3,0.4c0.7,0.3,1.3,0.6,1.9,1.1
			c0.5,0.5,1,1,1.3,1.5c0.3,0.6,0.4,1.1,0.4,1.7l-0.8-0.2v-9.5c0-0.3,0.1-0.6,0.3-0.8C221,266.4,221.3,266.3,221.6,266.3z
			 M215.6,285.9c1,0,1.8-0.2,2.6-0.7c0.7-0.5,1.3-1.2,1.7-2c0.4-0.9,0.6-1.8,0.6-2.9c0-1.1-0.2-2.1-0.6-2.9c-0.4-0.9-1-1.5-1.7-2
			c-0.7-0.5-1.6-0.7-2.6-0.7c-0.9,0-1.8,0.2-2.5,0.7c-0.7,0.5-1.3,1.2-1.8,2c-0.4,0.9-0.6,1.8-0.6,2.9c0,1.1,0.2,2,0.6,2.9
			s1,1.5,1.8,2C213.9,285.7,214.7,285.9,215.6,285.9z"/>
		<path class="st0" d="M239.4,272.6c0.3,0,0.6,0.1,0.8,0.3c0.2,0.2,0.3,0.5,0.3,0.8v12.8c0,0.3-0.1,0.6-0.3,0.8
			c-0.2,0.2-0.5,0.3-0.8,0.3c-0.3,0-0.6-0.1-0.9-0.3s-0.3-0.5-0.3-0.8v-2.8l0.6-0.1c0,0.4-0.1,0.9-0.4,1.4c-0.3,0.5-0.7,1-1.2,1.4
			s-1.1,0.8-1.8,1.1c-0.7,0.3-1.4,0.4-2.2,0.4c-1.3,0-2.5-0.3-3.6-1s-1.9-1.6-2.5-2.8c-0.6-1.2-0.9-2.5-0.9-4c0-1.5,0.3-2.9,0.9-4
			s1.4-2.1,2.5-2.8s2.2-1,3.5-1c0.8,0,1.6,0.1,2.3,0.4c0.7,0.3,1.3,0.6,1.9,1.1c0.5,0.5,0.9,1,1.2,1.5c0.3,0.6,0.4,1.1,0.4,1.7
			l-0.8-0.2v-3.2c0-0.3,0.1-0.6,0.3-0.8C238.8,272.8,239.1,272.6,239.4,272.6z M233.5,285.9c1,0,1.8-0.3,2.6-0.8
			c0.7-0.5,1.3-1.2,1.7-2s0.6-1.8,0.6-2.9c0-1.1-0.2-2-0.6-2.9c-0.4-0.9-1-1.5-1.7-2c-0.7-0.5-1.6-0.8-2.6-0.8
			c-0.9,0-1.8,0.2-2.5,0.7c-0.7,0.5-1.3,1.2-1.8,2c-0.4,0.9-0.6,1.8-0.6,2.9c0,1.1,0.2,2.1,0.6,2.9c0.4,0.9,1,1.5,1.7,2
			C231.6,285.7,232.5,285.9,233.5,285.9z"/>
		<path class="st0" d="M244.3,272.9h6.8c0.3,0,0.6,0.1,0.8,0.3c0.2,0.2,0.3,0.5,0.3,0.8c0,0.3-0.1,0.5-0.3,0.7s-0.5,0.3-0.8,0.3
			h-6.8c-0.3,0-0.5-0.1-0.8-0.3c-0.2-0.2-0.3-0.5-0.3-0.8c0-0.3,0.1-0.6,0.3-0.8C243.8,273,244,272.9,244.3,272.9z M247.3,268.9
			c0.3,0,0.6,0.1,0.8,0.3s0.3,0.5,0.3,0.8v14c0,0.5,0.1,0.8,0.2,1c0.1,0.2,0.3,0.4,0.5,0.5c0.2,0.1,0.4,0.1,0.7,0.1
			c0.2,0,0.4,0,0.5-0.1c0.1-0.1,0.3-0.1,0.5-0.1c0.2,0,0.4,0.1,0.5,0.3c0.2,0.2,0.2,0.4,0.2,0.7c0,0.3-0.2,0.6-0.6,0.9
			c-0.4,0.2-0.9,0.4-1.4,0.4c-0.3,0-0.6,0-1-0.1c-0.4,0-0.8-0.2-1.2-0.4c-0.4-0.2-0.7-0.6-1-1.1c-0.3-0.5-0.4-1.2-0.4-2.1v-14.1
			c0-0.3,0.1-0.6,0.3-0.8C246.7,269,247,268.9,247.3,268.9z"/>
		<path class="st0" d="M262.3,288.1c-1.6,0-2.9-0.3-4.1-1s-2.1-1.6-2.7-2.7c-0.6-1.1-1-2.5-1-4c0-1.7,0.3-3.1,1-4.3s1.5-2.1,2.6-2.7
			c1.1-0.6,2.2-0.9,3.4-0.9c0.9,0,1.8,0.2,2.6,0.5c0.8,0.3,1.6,0.8,2.2,1.5c0.6,0.6,1.2,1.4,1.5,2.3s0.6,1.9,0.6,3
			c0,0.3-0.1,0.6-0.3,0.8c-0.2,0.2-0.5,0.3-0.8,0.3h-11.5l-0.5-2h11.1l-0.5,0.4v-0.6c-0.1-0.8-0.3-1.5-0.8-2c-0.5-0.6-1-1-1.7-1.3
			c-0.6-0.3-1.3-0.5-2-0.5c-0.6,0-1.2,0.1-1.7,0.3c-0.6,0.2-1.1,0.5-1.5,1c-0.5,0.4-0.8,1-1.1,1.7s-0.4,1.6-0.4,2.6
			c0,1.1,0.2,2.1,0.7,3s1.1,1.5,1.9,2c0.8,0.5,1.8,0.7,2.8,0.7c0.7,0,1.3-0.1,1.8-0.3c0.5-0.2,0.9-0.4,1.3-0.7
			c0.4-0.3,0.7-0.5,0.9-0.8c0.3-0.2,0.5-0.3,0.8-0.3c0.3,0,0.5,0.1,0.7,0.3c0.2,0.2,0.3,0.4,0.3,0.7c0,0.3-0.2,0.6-0.5,0.9
			c-0.6,0.6-1.3,1.1-2.2,1.6C264.4,287.8,263.4,288.1,262.3,288.1z"/>
	</g>
</g>
<g>
	<g>
		<path class="st0" d="M40.6,175.6c0.9,0,1.6,0.2,2.3,0.6c0.7,0.4,1.2,1,1.6,1.8c0.4,0.8,0.6,1.6,0.6,2.6c0,1-0.2,1.8-0.6,2.6
			c-0.4,0.8-0.9,1.4-1.6,1.8c-0.7,0.4-1.4,0.7-2.3,0.7c-0.5,0-0.9-0.1-1.3-0.2s-0.8-0.3-1.1-0.6c-0.3-0.2-0.6-0.5-0.8-0.8
			s-0.4-0.6-0.5-0.9l0.4-0.2v5.6c0,0.2-0.1,0.4-0.2,0.6c-0.1,0.2-0.3,0.2-0.6,0.2c-0.2,0-0.4-0.1-0.5-0.2c-0.1-0.1-0.2-0.3-0.2-0.6
			v-12.1c0-0.2,0.1-0.4,0.2-0.6c0.1-0.1,0.3-0.2,0.5-0.2c0.2,0,0.4,0.1,0.6,0.2c0.1,0.1,0.2,0.3,0.2,0.6v1.7L37,178
			c0.1-0.3,0.2-0.6,0.5-0.9c0.2-0.3,0.5-0.5,0.8-0.8c0.3-0.2,0.7-0.4,1.1-0.5C39.7,175.7,40.1,175.6,40.6,175.6z M40.4,177
			c-0.6,0-1.2,0.2-1.7,0.5c-0.5,0.3-0.9,0.7-1.1,1.3c-0.3,0.5-0.4,1.2-0.4,1.9c0,0.7,0.1,1.3,0.4,1.9c0.3,0.6,0.7,1,1.1,1.3
			c0.5,0.3,1,0.5,1.7,0.5c0.6,0,1.2-0.2,1.7-0.5c0.5-0.3,0.9-0.8,1.1-1.3c0.3-0.6,0.4-1.2,0.4-1.9c0-0.7-0.1-1.3-0.4-1.9
			c-0.3-0.5-0.7-1-1.1-1.3C41.6,177.2,41,177,40.4,177z"/>
		<path class="st0" d="M48.1,185.6c-0.2,0-0.4-0.1-0.5-0.2c-0.1-0.2-0.2-0.3-0.2-0.6v-8.3c0-0.2,0.1-0.4,0.2-0.6
			c0.1-0.1,0.3-0.2,0.5-0.2c0.2,0,0.4,0.1,0.6,0.2c0.1,0.1,0.2,0.3,0.2,0.6v2.5l-0.2-0.4c0.1-0.4,0.2-0.8,0.4-1.1
			c0.2-0.4,0.4-0.7,0.8-1c0.3-0.3,0.7-0.5,1-0.7s0.8-0.3,1.3-0.3c0.3,0,0.5,0.1,0.8,0.2c0.2,0.1,0.4,0.3,0.4,0.6
			c0,0.3-0.1,0.5-0.2,0.6c-0.1,0.1-0.3,0.2-0.5,0.2c-0.2,0-0.3,0-0.5-0.1c-0.2-0.1-0.3-0.1-0.6-0.1c-0.3,0-0.6,0.1-0.9,0.3
			c-0.3,0.2-0.6,0.4-0.9,0.7c-0.3,0.3-0.5,0.7-0.6,1.1c-0.2,0.4-0.2,0.8-0.2,1.3v4.6c0,0.2-0.1,0.4-0.2,0.6
			C48.5,185.5,48.4,185.6,48.1,185.6z"/>
		<path class="st0" d="M59.5,185.8c-1,0-1.9-0.2-2.7-0.6c-0.8-0.4-1.3-1-1.8-1.8c-0.4-0.8-0.6-1.6-0.6-2.6c0-1.1,0.2-2,0.7-2.8
			s1-1.4,1.7-1.8c0.7-0.4,1.4-0.6,2.2-0.6c0.6,0,1.1,0.1,1.7,0.3c0.5,0.2,1,0.5,1.4,1s0.8,0.9,1,1.5s0.4,1.2,0.4,1.9
			c0,0.2-0.1,0.4-0.2,0.5c-0.2,0.1-0.3,0.2-0.5,0.2h-7.5l-0.3-1.3h7.3l-0.3,0.3v-0.4c0-0.5-0.2-1-0.5-1.3c-0.3-0.4-0.7-0.7-1.1-0.9
			s-0.9-0.3-1.3-0.3c-0.4,0-0.8,0.1-1.1,0.2c-0.4,0.1-0.7,0.4-1,0.6c-0.3,0.3-0.5,0.7-0.7,1.1s-0.3,1-0.3,1.7c0,0.7,0.1,1.4,0.4,1.9
			c0.3,0.6,0.7,1,1.2,1.3c0.5,0.3,1.2,0.5,1.9,0.5c0.4,0,0.8-0.1,1.2-0.2c0.3-0.1,0.6-0.3,0.8-0.4s0.4-0.3,0.6-0.5
			c0.2-0.1,0.3-0.2,0.5-0.2c0.2,0,0.3,0.1,0.5,0.2s0.2,0.3,0.2,0.5c0,0.2-0.1,0.4-0.3,0.6c-0.4,0.4-0.9,0.7-1.5,1
			C60.9,185.6,60.2,185.8,59.5,185.8z"/>
		<path class="st0" d="M65.3,184c-0.1-0.2-0.1-0.3-0.1-0.5s0.1-0.3,0.3-0.5c0.1-0.1,0.3-0.1,0.5-0.1c0.2,0,0.3,0.1,0.5,0.2
			c0.4,0.4,0.8,0.8,1.2,1c0.5,0.2,1,0.4,1.7,0.4c0.3,0,0.6-0.1,0.9-0.2c0.3-0.1,0.6-0.2,0.8-0.5c0.2-0.2,0.3-0.5,0.3-0.9
			c0-0.4-0.1-0.6-0.3-0.8c-0.2-0.2-0.5-0.4-0.8-0.5c-0.3-0.1-0.7-0.2-1.1-0.4c-0.4-0.1-0.8-0.2-1.2-0.4c-0.4-0.1-0.8-0.3-1.1-0.5
			c-0.3-0.2-0.6-0.5-0.8-0.8c-0.2-0.3-0.3-0.8-0.3-1.2c0-0.6,0.2-1.1,0.5-1.5c0.3-0.4,0.7-0.7,1.2-1c0.5-0.2,1.1-0.3,1.7-0.3
			c0.4,0,0.7,0,1.1,0.1s0.8,0.2,1.1,0.4c0.4,0.2,0.7,0.5,1,0.8c0.1,0.1,0.2,0.3,0.2,0.5s-0.1,0.4-0.2,0.5c-0.1,0.1-0.3,0.1-0.5,0.1
			s-0.3-0.1-0.4-0.2c-0.3-0.3-0.6-0.6-1-0.8c-0.4-0.2-0.8-0.3-1.3-0.3c-0.3,0-0.6,0-0.9,0.1c-0.3,0.1-0.5,0.2-0.7,0.4
			s-0.3,0.5-0.3,0.9c0,0.3,0.1,0.6,0.3,0.8c0.2,0.2,0.5,0.4,0.9,0.5c0.4,0.1,0.8,0.3,1.2,0.4c0.4,0.1,0.8,0.2,1.2,0.4
			c0.4,0.1,0.7,0.3,1,0.5c0.3,0.2,0.5,0.5,0.7,0.8c0.2,0.3,0.3,0.8,0.3,1.3c0,0.6-0.2,1.1-0.5,1.5s-0.8,0.7-1.3,1
			c-0.5,0.2-1.1,0.3-1.7,0.3c-0.7,0-1.4-0.1-2.1-0.4C66.4,185.1,65.8,184.7,65.3,184z"/>
		<path class="st0" d="M74.3,184c-0.1-0.2-0.1-0.3-0.1-0.5s0.1-0.3,0.3-0.5c0.1-0.1,0.3-0.1,0.5-0.1c0.2,0,0.3,0.1,0.5,0.2
			c0.4,0.4,0.8,0.8,1.2,1c0.5,0.2,1,0.4,1.7,0.4c0.3,0,0.6-0.1,0.9-0.2c0.3-0.1,0.6-0.2,0.8-0.5c0.2-0.2,0.3-0.5,0.3-0.9
			c0-0.4-0.1-0.6-0.3-0.8c-0.2-0.2-0.5-0.4-0.8-0.5c-0.3-0.1-0.7-0.2-1.1-0.4c-0.4-0.1-0.8-0.2-1.2-0.4c-0.4-0.1-0.8-0.3-1.1-0.5
			c-0.3-0.2-0.6-0.5-0.8-0.8c-0.2-0.3-0.3-0.8-0.3-1.2c0-0.6,0.2-1.1,0.5-1.5c0.3-0.4,0.7-0.7,1.2-1c0.5-0.2,1.1-0.3,1.7-0.3
			c0.4,0,0.7,0,1.1,0.1s0.8,0.2,1.1,0.4c0.4,0.2,0.7,0.5,1,0.8c0.1,0.1,0.2,0.3,0.2,0.5s-0.1,0.4-0.2,0.5c-0.1,0.1-0.3,0.1-0.5,0.1
			s-0.3-0.1-0.4-0.2c-0.3-0.3-0.6-0.6-1-0.8c-0.4-0.2-0.8-0.3-1.3-0.3c-0.3,0-0.6,0-0.9,0.1c-0.3,0.1-0.5,0.2-0.7,0.4
			s-0.3,0.5-0.3,0.9c0,0.3,0.1,0.6,0.3,0.8c0.2,0.2,0.5,0.4,0.9,0.5c0.4,0.1,0.8,0.3,1.2,0.4c0.4,0.1,0.8,0.2,1.2,0.4
			c0.4,0.1,0.7,0.3,1,0.5c0.3,0.2,0.5,0.5,0.7,0.8c0.2,0.3,0.3,0.8,0.3,1.3c0,0.6-0.2,1.1-0.5,1.5s-0.8,0.7-1.3,1
			c-0.5,0.2-1.1,0.3-1.7,0.3c-0.7,0-1.4-0.1-2.1-0.4C75.4,185.1,74.8,184.7,74.3,184z"/>
		<path class="st0" d="M90.2,172.3h6.8c0.2,0,0.4,0.1,0.6,0.2c0.2,0.1,0.2,0.3,0.2,0.5s-0.1,0.4-0.2,0.5c-0.2,0.1-0.3,0.2-0.6,0.2
			h-6.1l0.2-0.3v4.8l-0.2-0.2h5.3c0.2,0,0.4,0.1,0.6,0.2c0.2,0.1,0.2,0.3,0.2,0.6c0,0.2-0.1,0.4-0.2,0.5c-0.2,0.1-0.3,0.2-0.6,0.2
			h-5.2l0.1-0.2v4.9l-0.1-0.1h6.1c0.2,0,0.4,0.1,0.6,0.2s0.2,0.3,0.2,0.5c0,0.2-0.1,0.4-0.2,0.5c-0.2,0.1-0.3,0.2-0.6,0.2h-6.8
			c-0.2,0-0.4-0.1-0.6-0.2c-0.2-0.2-0.2-0.3-0.2-0.6v-11.7c0-0.2,0.1-0.4,0.2-0.6C89.8,172.4,89.9,172.3,90.2,172.3z"/>
		<path class="st0" d="M110.1,172.3c0.2,0,0.4,0.1,0.5,0.2c0.1,0.1,0.2,0.3,0.2,0.5v11.8c0,0.2-0.1,0.4-0.2,0.6
			c-0.2,0.1-0.3,0.2-0.6,0.2c-0.1,0-0.2,0-0.3-0.1c-0.1,0-0.2-0.1-0.3-0.2l-8.1-10.8l0.4-0.2v10.5c0,0.2-0.1,0.4-0.2,0.5
			c-0.1,0.1-0.3,0.2-0.5,0.2s-0.4-0.1-0.5-0.2c-0.1-0.1-0.2-0.3-0.2-0.5v-11.8c0-0.2,0.1-0.4,0.2-0.6c0.2-0.1,0.3-0.2,0.5-0.2
			c0.1,0,0.2,0,0.4,0.1c0.1,0,0.2,0.1,0.3,0.2l8,10.6l-0.2,0.3V173c0-0.2,0.1-0.4,0.2-0.5C109.7,172.4,109.9,172.3,110.1,172.3z"/>
		<path class="st0" d="M113.8,173.7c-0.2,0-0.4-0.1-0.6-0.2c-0.2-0.1-0.2-0.3-0.2-0.5c0-0.2,0.1-0.4,0.2-0.5
			c0.2-0.1,0.3-0.2,0.6-0.2h8.8c0.2,0,0.4,0.1,0.6,0.2c0.2,0.1,0.2,0.3,0.2,0.5c0,0.2-0.1,0.4-0.2,0.5c-0.2,0.1-0.3,0.2-0.6,0.2
			H113.8z M118.2,185.6c-0.2,0-0.4-0.1-0.6-0.2s-0.2-0.3-0.2-0.6v-11.7h1.6v11.7c0,0.2-0.1,0.4-0.2,0.6
			C118.7,185.5,118.5,185.6,118.2,185.6z"/>
		<path class="st0" d="M126.5,172.3h6.8c0.2,0,0.4,0.1,0.6,0.2c0.2,0.1,0.2,0.3,0.2,0.5s-0.1,0.4-0.2,0.5c-0.2,0.1-0.3,0.2-0.6,0.2
			h-6.1l0.2-0.3v4.8l-0.2-0.2h5.3c0.2,0,0.4,0.1,0.6,0.2c0.2,0.1,0.2,0.3,0.2,0.6c0,0.2-0.1,0.4-0.2,0.5c-0.2,0.1-0.3,0.2-0.6,0.2
			h-5.2l0.1-0.2v4.9l-0.1-0.1h6.1c0.2,0,0.4,0.1,0.6,0.2s0.2,0.3,0.2,0.5c0,0.2-0.1,0.4-0.2,0.5c-0.2,0.1-0.3,0.2-0.6,0.2h-6.8
			c-0.2,0-0.4-0.1-0.6-0.2c-0.2-0.2-0.2-0.3-0.2-0.6v-11.7c0-0.2,0.1-0.4,0.2-0.6C126.1,172.4,126.2,172.3,126.5,172.3z"/>
		<path class="st0" d="M137.4,185.6c-0.2,0-0.4-0.1-0.6-0.2s-0.3-0.3-0.3-0.6v-11.7c0-0.2,0.1-0.4,0.2-0.6c0.2-0.2,0.3-0.2,0.6-0.2
			h5.2c0.7,0,1.3,0.2,1.9,0.5c0.6,0.3,1,0.8,1.4,1.3c0.3,0.6,0.5,1.2,0.5,1.9c0,0.5-0.1,1-0.3,1.5s-0.5,0.9-0.8,1.2
			c-0.4,0.3-0.8,0.6-1.2,0.8l-0.4-0.3c0.4,0.1,0.8,0.3,1.2,0.5c0.3,0.3,0.6,0.6,0.8,1c0.2,0.4,0.3,0.9,0.3,1.4
			c0,0.5,0.1,0.8,0.1,1.1c0,0.3,0.1,0.5,0.2,0.7c0.1,0.2,0.2,0.3,0.3,0.4c0.2,0.1,0.3,0.3,0.4,0.5s0,0.4-0.1,0.6
			c-0.1,0.1-0.2,0.2-0.3,0.3c-0.1,0-0.3,0.1-0.4,0c-0.1,0-0.3-0.1-0.4-0.1c-0.2-0.1-0.4-0.3-0.6-0.5c-0.2-0.2-0.4-0.5-0.5-1
			c-0.1-0.4-0.2-1-0.2-1.7c0-0.4-0.1-0.7-0.2-1c-0.1-0.3-0.3-0.5-0.5-0.6c-0.2-0.2-0.4-0.3-0.7-0.3c-0.3-0.1-0.5-0.1-0.8-0.1h-4.2
			l0.2-0.3v4.9c0,0.2-0.1,0.4-0.2,0.6C137.8,185.5,137.6,185.6,137.4,185.6z M137.9,178.8h4.7c0.4,0,0.7-0.2,1-0.4
			c0.3-0.2,0.6-0.5,0.8-1c0.2-0.4,0.3-0.9,0.3-1.4c0-0.7-0.2-1.2-0.6-1.7s-1-0.7-1.6-0.7H138l0.2-0.4v5.8L137.9,178.8z"/>
		<path class="st0" d="M159,175.9c0.2,0,0.4,0.1,0.5,0.2c0.1,0.1,0.2,0.3,0.2,0.5s-0.1,0.4-0.2,0.5c-0.1,0.1-0.3,0.2-0.5,0.2h-4.8
			c-0.2,0-0.4-0.1-0.5-0.2c-0.1-0.1-0.2-0.3-0.2-0.5c0-0.2,0.1-0.4,0.2-0.5c0.1-0.1,0.3-0.2,0.5-0.2H159z M158.4,171.6
			c0.2,0,0.4,0,0.7,0.1s0.4,0.1,0.6,0.3c0.2,0.1,0.3,0.3,0.3,0.5c0,0.2-0.1,0.4-0.2,0.5c-0.1,0.1-0.3,0.2-0.5,0.2
			c-0.1,0-0.3,0-0.5-0.1c-0.2-0.1-0.4-0.1-0.6-0.1c-0.3,0-0.5,0.1-0.7,0.2s-0.3,0.3-0.4,0.5s-0.1,0.4-0.1,0.7v10.5
			c0,0.2-0.1,0.4-0.2,0.6c-0.1,0.2-0.3,0.2-0.5,0.2c-0.2,0-0.4-0.1-0.6-0.2c-0.1-0.2-0.2-0.3-0.2-0.6v-10.5c0-0.8,0.3-1.5,0.8-2
			C156.8,171.8,157.5,171.6,158.4,171.6z"/>
		<path class="st0" d="M171,180.6c0,1-0.2,1.9-0.7,2.6s-1,1.4-1.8,1.8c-0.7,0.4-1.6,0.7-2.5,0.7c-0.9,0-1.8-0.2-2.5-0.7
			c-0.7-0.4-1.3-1.1-1.8-1.8s-0.7-1.7-0.7-2.6c0-1,0.2-1.9,0.7-2.6c0.4-0.8,1-1.4,1.8-1.8c0.7-0.4,1.6-0.7,2.5-0.7
			c0.9,0,1.8,0.2,2.5,0.7s1.3,1.1,1.8,1.8C170.8,178.8,171,179.7,171,180.6z M169.5,180.6c0-0.7-0.1-1.4-0.4-1.9
			c-0.3-0.6-0.7-1-1.2-1.3c-0.5-0.3-1.1-0.5-1.7-0.5c-0.6,0-1.2,0.2-1.7,0.5c-0.5,0.3-0.9,0.8-1.2,1.3c-0.3,0.6-0.5,1.2-0.5,1.9
			c0,0.7,0.2,1.4,0.5,1.9c0.3,0.6,0.7,1,1.2,1.3c0.5,0.3,1.1,0.5,1.7,0.5c0.6,0,1.2-0.2,1.7-0.5c0.5-0.3,0.9-0.8,1.2-1.3
			C169.3,182,169.5,181.4,169.5,180.6z"/>
		<path class="st0" d="M174,185.6c-0.2,0-0.4-0.1-0.5-0.2c-0.1-0.2-0.2-0.3-0.2-0.6v-8.3c0-0.2,0.1-0.4,0.2-0.6
			c0.1-0.1,0.3-0.2,0.5-0.2c0.2,0,0.4,0.1,0.6,0.2c0.1,0.1,0.2,0.3,0.2,0.6v2.5l-0.2-0.4c0.1-0.4,0.2-0.8,0.4-1.1
			c0.2-0.4,0.4-0.7,0.8-1c0.3-0.3,0.7-0.5,1-0.7s0.8-0.3,1.3-0.3c0.3,0,0.5,0.1,0.8,0.2c0.2,0.1,0.4,0.3,0.4,0.6
			c0,0.3-0.1,0.5-0.2,0.6c-0.1,0.1-0.3,0.2-0.5,0.2c-0.2,0-0.3,0-0.5-0.1c-0.2-0.1-0.3-0.1-0.6-0.1c-0.3,0-0.6,0.1-0.9,0.3
			c-0.3,0.2-0.6,0.4-0.9,0.7c-0.3,0.3-0.5,0.7-0.6,1.1c-0.2,0.4-0.2,0.8-0.2,1.3v4.6c0,0.2-0.1,0.4-0.2,0.6
			C174.4,185.5,174.3,185.6,174,185.6z"/>
		<path class="st0" d="M194.2,175.7c0.2,0,0.4,0.1,0.5,0.2c0.1,0.1,0.2,0.3,0.2,0.5v8.4c0,0.2-0.1,0.4-0.2,0.6
			c-0.1,0.2-0.3,0.2-0.5,0.2c-0.2,0-0.4-0.1-0.6-0.2s-0.2-0.3-0.2-0.6V183l0.4,0c0,0.3-0.1,0.6-0.3,0.9c-0.2,0.3-0.4,0.6-0.8,0.9
			c-0.3,0.3-0.7,0.5-1.2,0.7s-0.9,0.3-1.4,0.3c-0.9,0-1.6-0.2-2.3-0.7s-1.2-1.1-1.6-1.8s-0.6-1.7-0.6-2.6c0-1,0.2-1.9,0.6-2.7
			s0.9-1.4,1.6-1.8s1.4-0.7,2.3-0.7c0.5,0,1.1,0.1,1.5,0.3c0.5,0.2,0.9,0.4,1.2,0.7c0.3,0.3,0.6,0.6,0.8,1c0.2,0.4,0.3,0.7,0.3,1.1
			l-0.5-0.1v-2.1c0-0.2,0.1-0.4,0.2-0.5C193.8,175.7,194,175.7,194.2,175.7z M190.3,184.4c0.6,0,1.2-0.2,1.7-0.5
			c0.5-0.3,0.9-0.8,1.1-1.3c0.3-0.6,0.4-1.2,0.4-1.9c0-0.7-0.1-1.3-0.4-1.9c-0.3-0.6-0.7-1-1.1-1.3c-0.5-0.3-1-0.5-1.7-0.5
			c-0.6,0-1.2,0.2-1.7,0.5c-0.5,0.3-0.9,0.8-1.1,1.3c-0.3,0.6-0.4,1.2-0.4,1.9s0.1,1.3,0.4,1.9c0.3,0.6,0.7,1,1.1,1.3
			C189.1,184.2,189.7,184.4,190.3,184.4z"/>
		<path class="st0" d="M207.9,175.5c0.9,0,1.5,0.2,2,0.5c0.5,0.4,0.8,0.8,1.1,1.4s0.3,1.3,0.3,2v5.3c0,0.2-0.1,0.4-0.2,0.6
			c-0.1,0.2-0.3,0.2-0.5,0.2c-0.2,0-0.4-0.1-0.6-0.2c-0.1-0.2-0.2-0.3-0.2-0.6v-5.3c0-0.5-0.1-0.9-0.2-1.3c-0.1-0.4-0.4-0.7-0.7-0.9
			c-0.3-0.2-0.8-0.4-1.4-0.4c-0.5,0-1,0.1-1.5,0.4c-0.4,0.2-0.8,0.5-1.1,0.9c-0.3,0.4-0.4,0.8-0.4,1.3v5.3c0,0.2-0.1,0.4-0.2,0.6
			c-0.1,0.2-0.3,0.2-0.5,0.2s-0.4-0.1-0.5-0.2c-0.1-0.2-0.2-0.3-0.2-0.6v-8.3c0-0.2,0.1-0.4,0.2-0.6c0.1-0.1,0.3-0.2,0.5-0.2
			c0.2,0,0.4,0.1,0.6,0.2c0.1,0.1,0.2,0.3,0.2,0.6v1.3l-0.4,0.4c0.1-0.3,0.2-0.7,0.4-1c0.2-0.3,0.5-0.6,0.9-0.9
			c0.3-0.3,0.7-0.5,1.1-0.6C207,175.6,207.4,175.5,207.9,175.5z"/>
		<path class="st0" d="M218.6,185.8c-1,0-1.9-0.2-2.7-0.6c-0.8-0.4-1.3-1-1.8-1.8c-0.4-0.8-0.6-1.6-0.6-2.6c0-1.1,0.2-2,0.7-2.8
			s1-1.4,1.7-1.8c0.7-0.4,1.4-0.6,2.2-0.6c0.6,0,1.1,0.1,1.7,0.3c0.5,0.2,1,0.5,1.4,1s0.8,0.9,1,1.5s0.4,1.2,0.4,1.9
			c0,0.2-0.1,0.4-0.2,0.5c-0.2,0.1-0.3,0.2-0.5,0.2h-7.5l-0.3-1.3h7.3l-0.3,0.3v-0.4c0-0.5-0.2-1-0.5-1.3c-0.3-0.4-0.7-0.7-1.1-0.9
			s-0.9-0.3-1.3-0.3c-0.4,0-0.8,0.1-1.1,0.2c-0.4,0.1-0.7,0.4-1,0.6c-0.3,0.3-0.5,0.7-0.7,1.1s-0.3,1-0.3,1.7c0,0.7,0.1,1.4,0.4,1.9
			c0.3,0.6,0.7,1,1.2,1.3c0.5,0.3,1.2,0.5,1.9,0.5c0.4,0,0.8-0.1,1.2-0.2c0.3-0.1,0.6-0.3,0.8-0.4s0.4-0.3,0.6-0.5
			c0.2-0.1,0.3-0.2,0.5-0.2c0.2,0,0.3,0.1,0.5,0.2s0.2,0.3,0.2,0.5c0,0.2-0.1,0.4-0.3,0.6c-0.4,0.4-0.9,0.7-1.5,1
			C220,185.6,219.3,185.8,218.6,185.8z"/>
		<path class="st0" d="M236.6,175.6c0.2,0,0.4,0.1,0.5,0.2c0.1,0.1,0.2,0.3,0.2,0.6c0,0.1,0,0.1,0,0.2c0,0.1,0,0.1,0,0.1l-2.9,8.4
			c-0.1,0.2-0.2,0.3-0.3,0.4s-0.3,0.1-0.5,0.1c-0.3,0-0.5-0.2-0.7-0.5l-2.4-6l0.4,0.1l-2.2,5.9c-0.1,0.3-0.4,0.5-0.7,0.5
			c-0.2,0-0.3,0-0.5-0.1c-0.2-0.1-0.3-0.2-0.3-0.4l-3-8.4c0-0.1-0.1-0.2-0.1-0.3c0-0.2,0.1-0.4,0.2-0.6c0.1-0.2,0.3-0.2,0.6-0.2
			c0.2,0,0.3,0,0.4,0.1c0.1,0.1,0.2,0.2,0.3,0.4l2.6,7.5l-0.4,0l2.2-5.7c0.1-0.3,0.4-0.5,0.7-0.5c0.2,0,0.3,0,0.4,0.1
			c0.1,0.1,0.2,0.2,0.2,0.4l2.3,5.7l-0.5,0l2.6-7.5C236,175.8,236.2,175.6,236.6,175.6z"/>
		<path class="st0" d="M246.3,184.8c0,0.2-0.1,0.4-0.2,0.6s-0.3,0.2-0.6,0.2s-0.4-0.1-0.5-0.2s-0.2-0.3-0.2-0.6v-12.5
			c0-0.2,0.1-0.4,0.2-0.6s0.3-0.2,0.6-0.2c0.2,0,0.4,0.1,0.6,0.2c0.1,0.2,0.2,0.3,0.2,0.6V184.8z"/>
		<path class="st0" d="M249.9,174.3c-0.3,0-0.6-0.1-0.7-0.2c-0.2-0.1-0.2-0.3-0.2-0.6v-0.3c0-0.3,0.1-0.5,0.2-0.6s0.4-0.2,0.7-0.2
			c0.3,0,0.5,0.1,0.7,0.2s0.2,0.3,0.2,0.6v0.3c0,0.3-0.1,0.5-0.2,0.6C250.4,174.3,250.2,174.3,249.9,174.3z M250.7,184.8
			c0,0.2-0.1,0.4-0.2,0.6s-0.3,0.2-0.5,0.2c-0.2,0-0.4-0.1-0.6-0.2s-0.2-0.3-0.2-0.6v-8.4c0-0.2,0.1-0.4,0.2-0.6s0.3-0.2,0.6-0.2
			c0.2,0,0.4,0.1,0.5,0.2s0.2,0.3,0.2,0.6V184.8z"/>
		<path class="st0" d="M258.3,175.5c0.9,0,1.5,0.2,2,0.5c0.5,0.4,0.8,0.8,1.1,1.4s0.3,1.3,0.3,2v5.3c0,0.2-0.1,0.4-0.2,0.6
			c-0.1,0.2-0.3,0.2-0.5,0.2c-0.2,0-0.4-0.1-0.6-0.2c-0.1-0.2-0.2-0.3-0.2-0.6v-5.3c0-0.5-0.1-0.9-0.2-1.3c-0.1-0.4-0.4-0.7-0.7-0.9
			c-0.3-0.2-0.8-0.4-1.4-0.4c-0.5,0-1,0.1-1.5,0.4c-0.4,0.2-0.8,0.5-1.1,0.9c-0.3,0.4-0.4,0.8-0.4,1.3v5.3c0,0.2-0.1,0.4-0.2,0.6
			c-0.1,0.2-0.3,0.2-0.5,0.2s-0.4-0.1-0.5-0.2c-0.1-0.2-0.2-0.3-0.2-0.6v-8.3c0-0.2,0.1-0.4,0.2-0.6c0.1-0.1,0.3-0.2,0.5-0.2
			c0.2,0,0.4,0.1,0.6,0.2c0.1,0.1,0.2,0.3,0.2,0.6v1.3l-0.4,0.4c0.1-0.3,0.2-0.7,0.4-1c0.2-0.3,0.5-0.6,0.9-0.9
			c0.3-0.3,0.7-0.5,1.1-0.6C257.4,175.6,257.8,175.5,258.3,175.5z"/>
		<path class="st0" d="M269.1,185.8c-1,0-1.9-0.2-2.7-0.6c-0.8-0.4-1.3-1-1.8-1.8c-0.4-0.8-0.6-1.6-0.6-2.6c0-1.1,0.2-2,0.7-2.8
			s1-1.4,1.7-1.8c0.7-0.4,1.4-0.6,2.2-0.6c0.6,0,1.1,0.1,1.7,0.3c0.5,0.2,1,0.5,1.4,1s0.8,0.9,1,1.5s0.4,1.2,0.4,1.9
			c0,0.2-0.1,0.4-0.2,0.5c-0.2,0.1-0.3,0.2-0.5,0.2h-7.5l-0.3-1.3h7.3l-0.3,0.3v-0.4c0-0.5-0.2-1-0.5-1.3c-0.3-0.4-0.7-0.7-1.1-0.9
			s-0.9-0.3-1.3-0.3c-0.4,0-0.8,0.1-1.1,0.2c-0.4,0.1-0.7,0.4-1,0.6c-0.3,0.3-0.5,0.7-0.7,1.1s-0.3,1-0.3,1.7c0,0.7,0.1,1.4,0.4,1.9
			c0.3,0.6,0.7,1,1.2,1.3c0.5,0.3,1.2,0.5,1.9,0.5c0.4,0,0.8-0.1,1.2-0.2c0.3-0.1,0.6-0.3,0.8-0.4s0.4-0.3,0.6-0.5
			c0.2-0.1,0.3-0.2,0.5-0.2c0.2,0,0.3,0.1,0.5,0.2s0.2,0.3,0.2,0.5c0,0.2-0.1,0.4-0.3,0.6c-0.4,0.4-0.9,0.7-1.5,1
			C270.4,185.6,269.7,185.8,269.1,185.8z"/>
		<path class="st0" d="M40.6,198.4c0.9,0,1.6,0.2,2.3,0.6c0.7,0.4,1.2,1,1.6,1.8c0.4,0.8,0.6,1.6,0.6,2.6c0,1-0.2,1.8-0.6,2.6
			c-0.4,0.8-0.9,1.4-1.6,1.8c-0.7,0.4-1.4,0.7-2.3,0.7c-0.5,0-0.9-0.1-1.3-0.2s-0.8-0.3-1.1-0.6c-0.3-0.2-0.6-0.5-0.8-0.8
			s-0.4-0.6-0.5-0.9l0.4-0.2v5.6c0,0.2-0.1,0.4-0.2,0.6c-0.1,0.2-0.3,0.2-0.6,0.2c-0.2,0-0.4-0.1-0.5-0.2c-0.1-0.1-0.2-0.3-0.2-0.6
			v-12.1c0-0.2,0.1-0.4,0.2-0.6c0.1-0.1,0.3-0.2,0.5-0.2c0.2,0,0.4,0.1,0.6,0.2c0.1,0.1,0.2,0.3,0.2,0.6v1.7l-0.3-0.2
			c0.1-0.3,0.2-0.6,0.5-0.9c0.2-0.3,0.5-0.5,0.8-0.8c0.3-0.2,0.7-0.4,1.1-0.5C39.7,198.5,40.1,198.4,40.6,198.4z M40.4,199.8
			c-0.6,0-1.2,0.2-1.7,0.5c-0.5,0.3-0.9,0.7-1.1,1.3c-0.3,0.5-0.4,1.2-0.4,1.9c0,0.7,0.1,1.3,0.4,1.9c0.3,0.6,0.7,1,1.1,1.3
			c0.5,0.3,1,0.5,1.7,0.5c0.6,0,1.2-0.2,1.7-0.5c0.5-0.3,0.9-0.8,1.1-1.3c0.3-0.6,0.4-1.2,0.4-1.9c0-0.7-0.1-1.3-0.4-1.9
			c-0.3-0.5-0.7-1-1.1-1.3C41.6,200,41,199.8,40.4,199.8z"/>
		<path class="st0" d="M48.1,208.4c-0.2,0-0.4-0.1-0.5-0.2c-0.1-0.2-0.2-0.3-0.2-0.6v-8.3c0-0.2,0.1-0.4,0.2-0.6
			c0.1-0.1,0.3-0.2,0.5-0.2c0.2,0,0.4,0.1,0.6,0.2c0.1,0.1,0.2,0.3,0.2,0.6v2.5l-0.2-0.4c0.1-0.4,0.2-0.8,0.4-1.1
			c0.2-0.4,0.4-0.7,0.8-1c0.3-0.3,0.7-0.5,1-0.7s0.8-0.3,1.3-0.3c0.3,0,0.5,0.1,0.8,0.2c0.2,0.1,0.4,0.3,0.4,0.6
			c0,0.3-0.1,0.5-0.2,0.6c-0.1,0.1-0.3,0.2-0.5,0.2c-0.2,0-0.3,0-0.5-0.1c-0.2-0.1-0.3-0.1-0.6-0.1c-0.3,0-0.6,0.1-0.9,0.3
			c-0.3,0.2-0.6,0.4-0.9,0.7c-0.3,0.3-0.5,0.7-0.6,1.1c-0.2,0.4-0.2,0.8-0.2,1.3v4.6c0,0.2-0.1,0.4-0.2,0.6
			C48.5,208.3,48.4,208.4,48.1,208.4z"/>
		<path class="st0" d="M59.5,208.6c-1,0-1.9-0.2-2.7-0.6c-0.8-0.4-1.3-1-1.8-1.8c-0.4-0.8-0.6-1.6-0.6-2.6c0-1.1,0.2-2,0.7-2.8
			s1-1.4,1.7-1.8c0.7-0.4,1.4-0.6,2.2-0.6c0.6,0,1.1,0.1,1.7,0.3c0.5,0.2,1,0.5,1.4,1s0.8,0.9,1,1.5s0.4,1.2,0.4,1.9
			c0,0.2-0.1,0.4-0.2,0.5c-0.2,0.1-0.3,0.2-0.5,0.2h-7.5l-0.3-1.3h7.3l-0.3,0.3v-0.4c0-0.5-0.2-1-0.5-1.3c-0.3-0.4-0.7-0.7-1.1-0.9
			s-0.9-0.3-1.3-0.3c-0.4,0-0.8,0.1-1.1,0.2c-0.4,0.1-0.7,0.4-1,0.6c-0.3,0.3-0.5,0.7-0.7,1.1s-0.3,1-0.3,1.7c0,0.7,0.1,1.4,0.4,1.9
			c0.3,0.6,0.7,1,1.2,1.3c0.5,0.3,1.2,0.5,1.9,0.5c0.4,0,0.8-0.1,1.2-0.2c0.3-0.1,0.6-0.3,0.8-0.4s0.4-0.3,0.6-0.5
			c0.2-0.1,0.3-0.2,0.5-0.2c0.2,0,0.3,0.1,0.5,0.2s0.2,0.3,0.2,0.5c0,0.2-0.1,0.4-0.3,0.6c-0.4,0.4-0.9,0.7-1.5,1
			C60.9,208.4,60.2,208.6,59.5,208.6z"/>
		<path class="st0" d="M65.3,206.8c-0.1-0.2-0.1-0.3-0.1-0.5s0.1-0.3,0.3-0.5c0.1-0.1,0.3-0.1,0.5-0.1c0.2,0,0.3,0.1,0.5,0.2
			c0.4,0.4,0.8,0.8,1.2,1c0.5,0.2,1,0.4,1.7,0.4c0.3,0,0.6-0.1,0.9-0.2c0.3-0.1,0.6-0.2,0.8-0.5c0.2-0.2,0.3-0.5,0.3-0.9
			c0-0.4-0.1-0.6-0.3-0.8c-0.2-0.2-0.5-0.4-0.8-0.5c-0.3-0.1-0.7-0.2-1.1-0.4c-0.4-0.1-0.8-0.2-1.2-0.4c-0.4-0.1-0.8-0.3-1.1-0.5
			c-0.3-0.2-0.6-0.5-0.8-0.8c-0.2-0.3-0.3-0.8-0.3-1.2c0-0.6,0.2-1.1,0.5-1.5c0.3-0.4,0.7-0.7,1.2-1c0.5-0.2,1.1-0.3,1.7-0.3
			c0.4,0,0.7,0,1.1,0.1s0.8,0.2,1.1,0.4c0.4,0.2,0.7,0.5,1,0.8c0.1,0.1,0.2,0.3,0.2,0.5s-0.1,0.4-0.2,0.5c-0.1,0.1-0.3,0.1-0.5,0.1
			s-0.3-0.1-0.4-0.2c-0.3-0.3-0.6-0.6-1-0.8c-0.4-0.2-0.8-0.3-1.3-0.3c-0.3,0-0.6,0-0.9,0.1c-0.3,0.1-0.5,0.2-0.7,0.4
			s-0.3,0.5-0.3,0.9c0,0.3,0.1,0.6,0.3,0.8c0.2,0.2,0.5,0.4,0.9,0.5c0.4,0.1,0.8,0.3,1.2,0.4c0.4,0.1,0.8,0.2,1.2,0.4
			c0.4,0.1,0.7,0.3,1,0.5c0.3,0.2,0.5,0.5,0.7,0.8c0.2,0.3,0.3,0.8,0.3,1.3c0,0.6-0.2,1.1-0.5,1.5s-0.8,0.7-1.3,1
			c-0.5,0.2-1.1,0.3-1.7,0.3c-0.7,0-1.4-0.1-2.1-0.4C66.4,207.9,65.8,207.5,65.3,206.8z"/>
		<path class="st0" d="M74.3,206.8c-0.1-0.2-0.1-0.3-0.1-0.5s0.1-0.3,0.3-0.5c0.1-0.1,0.3-0.1,0.5-0.1c0.2,0,0.3,0.1,0.5,0.2
			c0.4,0.4,0.8,0.8,1.2,1c0.5,0.2,1,0.4,1.7,0.4c0.3,0,0.6-0.1,0.9-0.2c0.3-0.1,0.6-0.2,0.8-0.5c0.2-0.2,0.3-0.5,0.3-0.9
			c0-0.4-0.1-0.6-0.3-0.8c-0.2-0.2-0.5-0.4-0.8-0.5c-0.3-0.1-0.7-0.2-1.1-0.4c-0.4-0.1-0.8-0.2-1.2-0.4c-0.4-0.1-0.8-0.3-1.1-0.5
			c-0.3-0.2-0.6-0.5-0.8-0.8c-0.2-0.3-0.3-0.8-0.3-1.2c0-0.6,0.2-1.1,0.5-1.5c0.3-0.4,0.7-0.7,1.2-1c0.5-0.2,1.1-0.3,1.7-0.3
			c0.4,0,0.7,0,1.1,0.1s0.8,0.2,1.1,0.4c0.4,0.2,0.7,0.5,1,0.8c0.1,0.1,0.2,0.3,0.2,0.5s-0.1,0.4-0.2,0.5c-0.1,0.1-0.3,0.1-0.5,0.1
			s-0.3-0.1-0.4-0.2c-0.3-0.3-0.6-0.6-1-0.8c-0.4-0.2-0.8-0.3-1.3-0.3c-0.3,0-0.6,0-0.9,0.1c-0.3,0.1-0.5,0.2-0.7,0.4
			s-0.3,0.5-0.3,0.9c0,0.3,0.1,0.6,0.3,0.8c0.2,0.2,0.5,0.4,0.9,0.5c0.4,0.1,0.8,0.3,1.2,0.4c0.4,0.1,0.8,0.2,1.2,0.4
			c0.4,0.1,0.7,0.3,1,0.5c0.3,0.2,0.5,0.5,0.7,0.8c0.2,0.3,0.3,0.8,0.3,1.3c0,0.6-0.2,1.1-0.5,1.5s-0.8,0.7-1.3,1
			c-0.5,0.2-1.1,0.3-1.7,0.3c-0.7,0-1.4-0.1-2.1-0.4C75.4,207.9,74.8,207.5,74.3,206.8z"/>
		<path class="st0" d="M93.3,208.6c-0.9,0-1.8-0.1-2.5-0.4c-0.7-0.3-1.4-0.7-2.1-1.3c-0.1-0.1-0.2-0.2-0.2-0.3
			c-0.1-0.1-0.1-0.2-0.1-0.4c0-0.2,0.1-0.4,0.2-0.5c0.1-0.2,0.3-0.2,0.5-0.2c0.2,0,0.3,0.1,0.5,0.2c0.5,0.5,1,0.8,1.6,1.1
			c0.6,0.3,1.2,0.4,1.9,0.4c0.6,0,1.1-0.1,1.5-0.3c0.4-0.2,0.8-0.4,1.1-0.7c0.3-0.3,0.4-0.7,0.4-1.1c0-0.5-0.1-0.9-0.4-1.3
			c-0.3-0.3-0.7-0.6-1.2-0.8c-0.5-0.2-1.1-0.4-1.7-0.6c-0.6-0.1-1.1-0.3-1.6-0.5s-0.9-0.4-1.3-0.7c-0.4-0.3-0.6-0.7-0.8-1.1
			c-0.2-0.4-0.3-0.9-0.3-1.5c0-0.7,0.2-1.4,0.6-1.9c0.4-0.5,0.9-1,1.6-1.3c0.7-0.3,1.5-0.5,2.3-0.5c0.8,0,1.5,0.1,2.2,0.4
			s1.2,0.6,1.7,1c0.3,0.2,0.4,0.5,0.4,0.7c0,0.2-0.1,0.3-0.2,0.5c-0.2,0.2-0.3,0.2-0.5,0.2c-0.1,0-0.3,0-0.4-0.1
			c-0.2-0.2-0.5-0.5-0.8-0.6c-0.3-0.2-0.7-0.3-1.1-0.5c-0.4-0.1-0.8-0.2-1.2-0.2c-0.6,0-1.1,0.1-1.5,0.3s-0.8,0.4-1,0.7
			c-0.2,0.3-0.4,0.7-0.4,1.1c0,0.5,0.1,0.9,0.4,1.2c0.3,0.3,0.7,0.6,1.1,0.8c0.5,0.2,1,0.4,1.6,0.5c0.6,0.2,1.2,0.3,1.7,0.5
			c0.5,0.2,1,0.4,1.4,0.7s0.7,0.7,0.9,1.1c0.2,0.4,0.3,1,0.3,1.7c0,0.7-0.2,1.3-0.6,1.9c-0.4,0.5-0.9,1-1.6,1.3
			S94.1,208.6,93.3,208.6z"/>
		<path class="st0" d="M101.1,195.1c0.2,0,0.4,0.1,0.6,0.2c0.2,0.2,0.2,0.3,0.2,0.6v11.7c0,0.2-0.1,0.4-0.2,0.6
			c-0.2,0.2-0.3,0.2-0.6,0.2c-0.2,0-0.4-0.1-0.6-0.2c-0.1-0.2-0.2-0.3-0.2-0.6v-11.7c0-0.2,0.1-0.4,0.2-0.6
			C100.7,195.2,100.9,195.1,101.1,195.1z M101,200.9h8.8l0,1.5H101L101,200.9z M109.8,195.1c0.2,0,0.4,0.1,0.6,0.2
			c0.1,0.2,0.2,0.3,0.2,0.6v11.7c0,0.2-0.1,0.4-0.2,0.6c-0.2,0.2-0.3,0.2-0.6,0.2c-0.2,0-0.4-0.1-0.6-0.2c-0.2-0.2-0.2-0.3-0.2-0.6
			v-11.7c0-0.2,0.1-0.4,0.2-0.6C109.4,195.2,109.6,195.1,109.8,195.1z"/>
		<path class="st0" d="M115.5,207.6c0,0.2-0.1,0.4-0.2,0.6c-0.2,0.2-0.3,0.2-0.6,0.2c-0.2,0-0.4-0.1-0.6-0.2
			c-0.1-0.2-0.2-0.3-0.2-0.6v-11.7c0-0.2,0.1-0.4,0.2-0.6c0.2-0.2,0.3-0.2,0.6-0.2c0.2,0,0.4,0.1,0.6,0.2c0.2,0.2,0.2,0.3,0.2,0.6
			V207.6z"/>
		<path class="st0" d="M119.7,208.4c-0.2,0-0.4-0.1-0.6-0.2c-0.1-0.2-0.2-0.3-0.2-0.6v-11.7c0-0.2,0.1-0.4,0.2-0.6
			c0.2-0.2,0.3-0.2,0.6-0.2h6.7c0.2,0,0.4,0.1,0.6,0.2c0.2,0.1,0.2,0.3,0.2,0.5c0,0.2-0.1,0.4-0.2,0.5c-0.2,0.1-0.3,0.2-0.6,0.2h-6
			l0.1-0.2v4.6l-0.1-0.2h5.1c0.2,0,0.4,0.1,0.6,0.2c0.2,0.1,0.2,0.3,0.2,0.5c0,0.2-0.1,0.4-0.2,0.5c-0.2,0.1-0.3,0.2-0.6,0.2h-5.1
			l0.1-0.2v5.4c0,0.2-0.1,0.4-0.2,0.6S119.9,208.4,119.7,208.4z"/>
		<path class="st0" d="M129.3,196.5c-0.2,0-0.4-0.1-0.6-0.2c-0.2-0.1-0.2-0.3-0.2-0.5c0-0.2,0.1-0.4,0.2-0.5
			c0.2-0.1,0.3-0.2,0.6-0.2h8.8c0.2,0,0.4,0.1,0.6,0.2c0.2,0.1,0.2,0.3,0.2,0.5c0,0.2-0.1,0.4-0.2,0.5c-0.2,0.1-0.3,0.2-0.6,0.2
			H129.3z M133.7,208.4c-0.2,0-0.4-0.1-0.6-0.2s-0.2-0.3-0.2-0.6v-11.7h1.6v11.7c0,0.2-0.1,0.4-0.2,0.6
			C134.2,208.3,134,208.4,133.7,208.4z"/>
		<path class="st0" d="M146.4,202.8c-0.2,0-0.4-0.1-0.5-0.2c-0.1-0.1-0.2-0.3-0.2-0.5c0-0.2,0.1-0.4,0.2-0.5
			c0.1-0.1,0.3-0.2,0.5-0.2h7.8c0.2,0,0.4,0.1,0.5,0.2c0.1,0.1,0.2,0.3,0.2,0.5c0,0.2-0.1,0.4-0.2,0.5c-0.1,0.1-0.3,0.2-0.5,0.2
			H146.4z M150.2,206.8c-0.2,0-0.4-0.1-0.6-0.2c-0.2-0.2-0.2-0.4-0.2-0.6v-7.8c0-0.3,0.1-0.5,0.2-0.6c0.2-0.2,0.4-0.2,0.6-0.2
			c0.2,0,0.4,0.1,0.6,0.2c0.1,0.2,0.2,0.3,0.2,0.6v7.8c0,0.2-0.1,0.4-0.2,0.6C150.7,206.7,150.5,206.8,150.2,206.8z"/>
		<path class="st0" d="M163.2,195.1h6.8c0.2,0,0.4,0.1,0.6,0.2c0.2,0.1,0.2,0.3,0.2,0.5s-0.1,0.4-0.2,0.5c-0.2,0.1-0.3,0.2-0.6,0.2
			h-6.1l0.2-0.3v4.8l-0.2-0.2h5.3c0.2,0,0.4,0.1,0.6,0.2c0.2,0.1,0.2,0.3,0.2,0.6c0,0.2-0.1,0.4-0.2,0.5c-0.2,0.1-0.3,0.2-0.6,0.2
			h-5.2l0.1-0.2v4.9l-0.1-0.1h6.1c0.2,0,0.4,0.1,0.6,0.2s0.2,0.3,0.2,0.5c0,0.2-0.1,0.4-0.2,0.5c-0.2,0.1-0.3,0.2-0.6,0.2h-6.8
			c-0.2,0-0.4-0.1-0.6-0.2c-0.2-0.2-0.2-0.3-0.2-0.6v-11.7c0-0.2,0.1-0.4,0.2-0.6C162.8,195.2,163,195.1,163.2,195.1z"/>
		<path class="st0" d="M183.1,195.1c0.2,0,0.4,0.1,0.5,0.2c0.1,0.1,0.2,0.3,0.2,0.5v11.8c0,0.2-0.1,0.4-0.2,0.6
			c-0.2,0.1-0.3,0.2-0.6,0.2c-0.1,0-0.2,0-0.3-0.1c-0.1,0-0.2-0.1-0.3-0.2l-8.1-10.8l0.4-0.2v10.5c0,0.2-0.1,0.4-0.2,0.5
			c-0.1,0.1-0.3,0.2-0.5,0.2s-0.4-0.1-0.5-0.2c-0.1-0.1-0.2-0.3-0.2-0.5v-11.8c0-0.2,0.1-0.4,0.2-0.6c0.2-0.1,0.3-0.2,0.5-0.2
			c0.1,0,0.2,0,0.4,0.1c0.1,0,0.2,0.1,0.3,0.2l8,10.6l-0.2,0.3v-10.5c0-0.2,0.1-0.4,0.2-0.5C182.7,195.2,182.9,195.1,183.1,195.1z"
			/>
		<path class="st0" d="M186.8,196.5c-0.2,0-0.4-0.1-0.6-0.2c-0.2-0.1-0.2-0.3-0.2-0.5c0-0.2,0.1-0.4,0.2-0.5
			c0.2-0.1,0.3-0.2,0.6-0.2h8.8c0.2,0,0.4,0.1,0.6,0.2c0.2,0.1,0.2,0.3,0.2,0.5c0,0.2-0.1,0.4-0.2,0.5c-0.2,0.1-0.3,0.2-0.6,0.2
			H186.8z M191.3,208.4c-0.2,0-0.4-0.1-0.6-0.2s-0.2-0.3-0.2-0.6v-11.7h1.6v11.7c0,0.2-0.1,0.4-0.2,0.6
			C191.7,208.3,191.5,208.4,191.3,208.4z"/>
		<path class="st0" d="M199.5,195.1h6.8c0.2,0,0.4,0.1,0.6,0.2c0.2,0.1,0.2,0.3,0.2,0.5s-0.1,0.4-0.2,0.5c-0.2,0.1-0.3,0.2-0.6,0.2
			h-6.1l0.2-0.3v4.8l-0.2-0.2h5.3c0.2,0,0.4,0.1,0.6,0.2c0.2,0.1,0.2,0.3,0.2,0.6c0,0.2-0.1,0.4-0.2,0.5c-0.2,0.1-0.3,0.2-0.6,0.2
			h-5.2l0.1-0.2v4.9l-0.1-0.1h6.1c0.2,0,0.4,0.1,0.6,0.2s0.2,0.3,0.2,0.5c0,0.2-0.1,0.4-0.2,0.5c-0.2,0.1-0.3,0.2-0.6,0.2h-6.8
			c-0.2,0-0.4-0.1-0.6-0.2c-0.2-0.2-0.2-0.3-0.2-0.6v-11.7c0-0.2,0.1-0.4,0.2-0.6C199.1,195.2,199.3,195.1,199.5,195.1z"/>
		<path class="st0" d="M210.4,208.4c-0.2,0-0.4-0.1-0.6-0.2s-0.3-0.3-0.3-0.6v-11.7c0-0.2,0.1-0.4,0.2-0.6c0.2-0.2,0.3-0.2,0.6-0.2
			h5.2c0.7,0,1.3,0.2,1.9,0.5c0.6,0.3,1,0.8,1.4,1.3c0.3,0.6,0.5,1.2,0.5,1.9c0,0.5-0.1,1-0.3,1.5s-0.5,0.9-0.8,1.2
			c-0.4,0.3-0.8,0.6-1.2,0.8l-0.4-0.3c0.4,0.1,0.8,0.3,1.2,0.5c0.3,0.3,0.6,0.6,0.8,1c0.2,0.4,0.3,0.9,0.3,1.4
			c0,0.5,0.1,0.8,0.1,1.1c0,0.3,0.1,0.5,0.2,0.7c0.1,0.2,0.2,0.3,0.3,0.4c0.2,0.1,0.3,0.3,0.4,0.5s0,0.4-0.1,0.6
			c-0.1,0.1-0.2,0.2-0.3,0.3c-0.1,0-0.3,0.1-0.4,0c-0.1,0-0.3-0.1-0.4-0.1c-0.2-0.1-0.4-0.3-0.6-0.5c-0.2-0.2-0.4-0.5-0.5-1
			c-0.1-0.4-0.2-1-0.2-1.7c0-0.4-0.1-0.7-0.2-1c-0.1-0.3-0.3-0.5-0.5-0.6c-0.2-0.2-0.4-0.3-0.7-0.3c-0.3-0.1-0.5-0.1-0.8-0.1h-4.2
			l0.2-0.3v4.9c0,0.2-0.1,0.4-0.2,0.6C210.8,208.3,210.7,208.4,210.4,208.4z M210.9,201.6h4.7c0.4,0,0.7-0.2,1-0.4
			c0.3-0.2,0.6-0.5,0.8-1c0.2-0.4,0.3-0.9,0.3-1.4c0-0.7-0.2-1.2-0.6-1.7s-1-0.7-1.6-0.7H211l0.2-0.4v5.8L210.9,201.6z"/>
		<path class="st0" d="M227,198.6h4.5c0.2,0,0.4,0.1,0.5,0.2c0.1,0.1,0.2,0.3,0.2,0.5c0,0.2-0.1,0.4-0.2,0.5
			c-0.1,0.1-0.3,0.2-0.5,0.2H227c-0.2,0-0.4-0.1-0.5-0.2s-0.2-0.3-0.2-0.5c0-0.2,0.1-0.4,0.2-0.5C226.6,198.7,226.8,198.6,227,198.6
			z M229,196c0.2,0,0.4,0.1,0.5,0.2c0.1,0.2,0.2,0.3,0.2,0.6v9.2c0,0.3,0,0.5,0.1,0.7c0.1,0.2,0.2,0.3,0.4,0.3
			c0.1,0.1,0.3,0.1,0.4,0.1c0.1,0,0.2,0,0.3-0.1c0.1,0,0.2-0.1,0.3-0.1s0.2,0.1,0.4,0.2c0.1,0.1,0.2,0.3,0.2,0.5
			c0,0.2-0.1,0.4-0.4,0.6s-0.6,0.2-0.9,0.2c-0.2,0-0.4,0-0.7,0s-0.5-0.1-0.8-0.2c-0.3-0.1-0.5-0.4-0.6-0.7c-0.2-0.3-0.3-0.8-0.3-1.4
			v-9.2c0-0.2,0.1-0.4,0.2-0.6C228.6,196.1,228.8,196,229,196z"/>
		<path class="st0" d="M243.6,203.4c0,1-0.2,1.9-0.7,2.6s-1,1.4-1.8,1.8c-0.7,0.4-1.6,0.7-2.5,0.7c-0.9,0-1.8-0.2-2.5-0.7
			c-0.7-0.4-1.3-1.1-1.8-1.8s-0.7-1.7-0.7-2.6c0-1,0.2-1.9,0.7-2.6c0.4-0.8,1-1.4,1.8-1.8c0.7-0.4,1.6-0.7,2.5-0.7
			c0.9,0,1.8,0.2,2.5,0.7s1.3,1.1,1.8,1.8C243.4,201.6,243.6,202.5,243.6,203.4z M242.1,203.4c0-0.7-0.1-1.4-0.4-1.9
			c-0.3-0.6-0.7-1-1.2-1.3c-0.5-0.3-1.1-0.5-1.7-0.5c-0.6,0-1.2,0.2-1.7,0.5c-0.5,0.3-0.9,0.8-1.2,1.3c-0.3,0.6-0.5,1.2-0.5,1.9
			c0,0.7,0.2,1.4,0.5,1.9c0.3,0.6,0.7,1,1.2,1.3c0.5,0.3,1.1,0.5,1.7,0.5c0.6,0,1.2-0.2,1.7-0.5c0.5-0.3,0.9-0.8,1.2-1.3
			C241.9,204.8,242.1,204.2,242.1,203.4z"/>
		<path class="st0" d="M259.2,198.5c0.2,0,0.4,0.1,0.5,0.2c0.1,0.1,0.2,0.3,0.2,0.5v8.4c0,0.2-0.1,0.4-0.2,0.6
			c-0.1,0.2-0.3,0.2-0.5,0.2c-0.2,0-0.4-0.1-0.6-0.2s-0.2-0.3-0.2-0.6v-1.8l0.4,0c0,0.3-0.1,0.6-0.3,0.9c-0.2,0.3-0.4,0.6-0.8,0.9
			c-0.3,0.3-0.7,0.5-1.2,0.7s-0.9,0.3-1.4,0.3c-0.9,0-1.6-0.2-2.3-0.7s-1.2-1.1-1.6-1.8s-0.6-1.7-0.6-2.6c0-1,0.2-1.9,0.6-2.7
			s0.9-1.4,1.6-1.8s1.4-0.7,2.3-0.7c0.5,0,1.1,0.1,1.5,0.3c0.5,0.2,0.9,0.4,1.2,0.7c0.3,0.3,0.6,0.6,0.8,1c0.2,0.4,0.3,0.7,0.3,1.1
			l-0.5-0.1v-2.1c0-0.2,0.1-0.4,0.2-0.5C258.8,198.5,259,198.5,259.2,198.5z M255.3,207.2c0.6,0,1.2-0.2,1.7-0.5
			c0.5-0.3,0.9-0.8,1.1-1.3c0.3-0.6,0.4-1.2,0.4-1.9c0-0.7-0.1-1.3-0.4-1.9c-0.3-0.6-0.7-1-1.1-1.3c-0.5-0.3-1-0.5-1.7-0.5
			c-0.6,0-1.2,0.2-1.7,0.5c-0.5,0.3-0.9,0.8-1.1,1.3c-0.3,0.6-0.4,1.2-0.4,1.9s0.1,1.3,0.4,1.9c0.3,0.6,0.7,1,1.1,1.3
			C254.1,207,254.6,207.2,255.3,207.2z"/>
		<path class="st0" d="M270.9,194.3c0.2,0,0.4,0.1,0.5,0.2c0.1,0.1,0.2,0.3,0.2,0.6v12.5c0,0.2-0.1,0.4-0.2,0.6
			c-0.1,0.2-0.3,0.2-0.5,0.2c-0.2,0-0.4-0.1-0.6-0.2s-0.2-0.3-0.2-0.6v-1.8l0.4-0.1c0,0.3-0.1,0.6-0.3,0.9c-0.2,0.3-0.4,0.7-0.8,0.9
			c-0.3,0.3-0.7,0.5-1.2,0.7s-0.9,0.3-1.4,0.3c-0.9,0-1.6-0.2-2.3-0.7c-0.7-0.4-1.2-1.1-1.6-1.8s-0.6-1.7-0.6-2.6
			c0-1,0.2-1.9,0.6-2.7c0.4-0.8,0.9-1.4,1.6-1.8s1.4-0.7,2.3-0.7c0.5,0,1,0.1,1.5,0.3c0.5,0.2,0.9,0.4,1.2,0.7
			c0.4,0.3,0.6,0.6,0.8,1c0.2,0.4,0.3,0.7,0.3,1.1l-0.5-0.1v-6.2c0-0.2,0.1-0.4,0.2-0.6S270.6,194.3,270.9,194.3z M266.9,207.2
			c0.6,0,1.2-0.2,1.7-0.5c0.5-0.3,0.9-0.8,1.1-1.3c0.3-0.6,0.4-1.2,0.4-1.9s-0.1-1.3-0.4-1.9c-0.3-0.6-0.7-1-1.1-1.3
			c-0.5-0.3-1-0.5-1.7-0.5c-0.6,0-1.2,0.2-1.7,0.5c-0.5,0.3-0.9,0.8-1.1,1.3c-0.3,0.6-0.4,1.2-0.4,1.9c0,0.7,0.1,1.3,0.4,1.9
			c0.3,0.6,0.7,1,1.1,1.3C265.8,207,266.3,207.2,266.9,207.2z"/>
		<path class="st0" d="M282.5,194.3c0.2,0,0.4,0.1,0.5,0.2c0.1,0.1,0.2,0.3,0.2,0.6v12.5c0,0.2-0.1,0.4-0.2,0.6
			c-0.1,0.2-0.3,0.2-0.5,0.2c-0.2,0-0.4-0.1-0.6-0.2s-0.2-0.3-0.2-0.6v-1.8l0.4-0.1c0,0.3-0.1,0.6-0.3,0.9c-0.2,0.3-0.4,0.7-0.8,0.9
			c-0.3,0.3-0.7,0.5-1.2,0.7s-0.9,0.3-1.4,0.3c-0.9,0-1.6-0.2-2.3-0.7c-0.7-0.4-1.2-1.1-1.6-1.8s-0.6-1.7-0.6-2.6
			c0-1,0.2-1.9,0.6-2.7c0.4-0.8,0.9-1.4,1.6-1.8s1.4-0.7,2.3-0.7c0.5,0,1,0.1,1.5,0.3c0.5,0.2,0.9,0.4,1.2,0.7
			c0.4,0.3,0.6,0.6,0.8,1c0.2,0.4,0.3,0.7,0.3,1.1l-0.5-0.1v-6.2c0-0.2,0.1-0.4,0.2-0.6S282.3,194.3,282.5,194.3z M278.6,207.2
			c0.6,0,1.2-0.2,1.7-0.5c0.5-0.3,0.9-0.8,1.1-1.3c0.3-0.6,0.4-1.2,0.4-1.9s-0.1-1.3-0.4-1.9c-0.3-0.6-0.7-1-1.1-1.3
			c-0.5-0.3-1-0.5-1.7-0.5c-0.6,0-1.2,0.2-1.7,0.5c-0.5,0.3-0.9,0.8-1.1,1.3c-0.3,0.6-0.4,1.2-0.4,1.9c0,0.7,0.1,1.3,0.4,1.9
			c0.3,0.6,0.7,1,1.1,1.3C277.4,207,278,207.2,278.6,207.2z"/>
		<path class="st0" d="M299.4,198.5c0.2,0,0.4,0.1,0.5,0.2c0.1,0.1,0.2,0.3,0.2,0.5v8.4c0,0.2-0.1,0.4-0.2,0.6
			c-0.1,0.2-0.3,0.2-0.5,0.2c-0.2,0-0.4-0.1-0.6-0.2s-0.2-0.3-0.2-0.6v-1.8l0.4,0c0,0.3-0.1,0.6-0.3,0.9c-0.2,0.3-0.4,0.6-0.8,0.9
			c-0.3,0.3-0.7,0.5-1.2,0.7s-0.9,0.3-1.4,0.3c-0.9,0-1.6-0.2-2.3-0.7s-1.2-1.1-1.6-1.8s-0.6-1.7-0.6-2.6c0-1,0.2-1.9,0.6-2.7
			s0.9-1.4,1.6-1.8s1.4-0.7,2.3-0.7c0.5,0,1.1,0.1,1.5,0.3c0.5,0.2,0.9,0.4,1.2,0.7c0.3,0.3,0.6,0.6,0.8,1c0.2,0.4,0.3,0.7,0.3,1.1
			l-0.5-0.1v-2.1c0-0.2,0.1-0.4,0.2-0.5C299,198.5,299.2,198.5,299.4,198.5z M295.5,207.2c0.6,0,1.2-0.2,1.7-0.5
			c0.5-0.3,0.9-0.8,1.1-1.3c0.3-0.6,0.4-1.2,0.4-1.9c0-0.7-0.1-1.3-0.4-1.9c-0.3-0.6-0.7-1-1.1-1.3c-0.5-0.3-1-0.5-1.7-0.5
			c-0.6,0-1.2,0.2-1.7,0.5c-0.5,0.3-0.9,0.8-1.1,1.3c-0.3,0.6-0.4,1.2-0.4,1.9s0.1,1.3,0.4,1.9c0.3,0.6,0.7,1,1.1,1.3
			C294.3,207,294.9,207.2,295.5,207.2z"/>
		<path class="st0" d="M307.8,198.6h4.5c0.2,0,0.4,0.1,0.5,0.2c0.1,0.1,0.2,0.3,0.2,0.5c0,0.2-0.1,0.4-0.2,0.5
			c-0.1,0.1-0.3,0.2-0.5,0.2h-4.5c-0.2,0-0.4-0.1-0.5-0.2s-0.2-0.3-0.2-0.5c0-0.2,0.1-0.4,0.2-0.5
			C307.5,198.7,307.6,198.6,307.8,198.6z M309.8,196c0.2,0,0.4,0.1,0.5,0.2s0.2,0.3,0.2,0.6v9.2c0,0.3,0,0.5,0.1,0.7
			s0.2,0.3,0.4,0.3s0.3,0.1,0.4,0.1c0.1,0,0.2,0,0.3-0.1c0.1,0,0.2-0.1,0.3-0.1c0.1,0,0.2,0.1,0.4,0.2c0.1,0.1,0.2,0.3,0.2,0.5
			c0,0.2-0.1,0.4-0.4,0.6c-0.3,0.2-0.6,0.2-0.9,0.2c-0.2,0-0.4,0-0.7,0s-0.5-0.1-0.8-0.2c-0.3-0.1-0.5-0.4-0.6-0.7
			c-0.2-0.3-0.3-0.8-0.3-1.4v-9.2c0-0.2,0.1-0.4,0.2-0.6S309.6,196,309.8,196z"/>
		<path class="st0" d="M323.2,198.5c0.2,0,0.4,0.1,0.5,0.2c0.1,0.1,0.2,0.3,0.2,0.5v8.4c0,0.2-0.1,0.4-0.2,0.6
			c-0.1,0.2-0.3,0.2-0.5,0.2c-0.2,0-0.4-0.1-0.6-0.2s-0.2-0.3-0.2-0.6v-1.8l0.4,0c0,0.3-0.1,0.6-0.3,0.9c-0.2,0.3-0.4,0.6-0.8,0.9
			c-0.3,0.3-0.7,0.5-1.2,0.7s-0.9,0.3-1.4,0.3c-0.9,0-1.6-0.2-2.3-0.7s-1.2-1.1-1.6-1.8s-0.6-1.7-0.6-2.6c0-1,0.2-1.9,0.6-2.7
			c0.4-0.8,0.9-1.4,1.6-1.8s1.4-0.7,2.3-0.7c0.5,0,1.1,0.1,1.5,0.3c0.5,0.2,0.9,0.4,1.2,0.7c0.3,0.3,0.6,0.6,0.8,1
			c0.2,0.4,0.3,0.7,0.3,1.1l-0.5-0.1v-2.1c0-0.2,0.1-0.4,0.2-0.5C322.8,198.5,323,198.5,323.2,198.5z M319.3,207.2
			c0.6,0,1.2-0.2,1.7-0.5c0.5-0.3,0.9-0.8,1.1-1.3c0.3-0.6,0.4-1.2,0.4-1.9c0-0.7-0.1-1.3-0.4-1.9c-0.3-0.6-0.7-1-1.1-1.3
			c-0.5-0.3-1-0.5-1.7-0.5c-0.6,0-1.2,0.2-1.7,0.5c-0.5,0.3-0.9,0.8-1.1,1.3c-0.3,0.6-0.4,1.2-0.4,1.9s0.1,1.3,0.4,1.9
			s0.7,1,1.1,1.3C318.1,207,318.7,207.2,319.3,207.2z"/>
		<path class="st0" d="M326.2,206.8c-0.1-0.2-0.1-0.3-0.1-0.5c0-0.2,0.1-0.3,0.3-0.5c0.1-0.1,0.3-0.1,0.5-0.1c0.2,0,0.3,0.1,0.5,0.2
			c0.4,0.4,0.8,0.8,1.2,1s1,0.4,1.7,0.4c0.3,0,0.6-0.1,0.9-0.2c0.3-0.1,0.6-0.2,0.8-0.5c0.2-0.2,0.3-0.5,0.3-0.9
			c0-0.4-0.1-0.6-0.3-0.8s-0.5-0.4-0.8-0.5c-0.3-0.1-0.7-0.2-1.1-0.4c-0.4-0.1-0.8-0.2-1.2-0.4c-0.4-0.1-0.8-0.3-1.1-0.5
			s-0.6-0.5-0.8-0.8c-0.2-0.3-0.3-0.8-0.3-1.2c0-0.6,0.2-1.1,0.5-1.5s0.7-0.7,1.2-1c0.5-0.2,1.1-0.3,1.7-0.3c0.4,0,0.7,0,1.1,0.1
			c0.4,0.1,0.8,0.2,1.1,0.4s0.7,0.5,1,0.8c0.1,0.1,0.2,0.3,0.2,0.5s-0.1,0.4-0.2,0.5c-0.1,0.1-0.3,0.1-0.5,0.1s-0.3-0.1-0.4-0.2
			c-0.3-0.3-0.6-0.6-1-0.8c-0.4-0.2-0.8-0.3-1.3-0.3c-0.3,0-0.6,0-0.9,0.1c-0.3,0.1-0.5,0.2-0.7,0.4s-0.3,0.5-0.3,0.9
			c0,0.3,0.1,0.6,0.3,0.8c0.2,0.2,0.5,0.4,0.9,0.5c0.4,0.1,0.8,0.3,1.2,0.4c0.4,0.1,0.8,0.2,1.2,0.4c0.4,0.1,0.7,0.3,1,0.5
			c0.3,0.2,0.5,0.5,0.7,0.8c0.2,0.3,0.3,0.8,0.3,1.3c0,0.6-0.2,1.1-0.5,1.5c-0.3,0.4-0.8,0.7-1.3,1c-0.5,0.2-1.1,0.3-1.7,0.3
			c-0.7,0-1.4-0.1-2.1-0.4C327.3,207.9,326.7,207.5,326.2,206.8z"/>
		<path class="st0" d="M336.7,208.4c-0.2,0-0.4-0.1-0.6-0.2s-0.2-0.3-0.2-0.6v-12.5c0-0.2,0.1-0.4,0.2-0.6s0.3-0.2,0.6-0.2
			c0.2,0,0.4,0.1,0.5,0.2s0.2,0.3,0.2,0.6v12.5c0,0.2-0.1,0.4-0.2,0.6S336.9,208.4,336.7,208.4z M343,198.5c0.2,0,0.4,0.1,0.5,0.2
			c0.1,0.2,0.2,0.3,0.2,0.5c0,0.2-0.1,0.4-0.3,0.6l-6.2,5.4l-0.1-1.8l5.2-4.7C342.6,198.6,342.8,198.5,343,198.5z M343.2,208.4
			c-0.2,0-0.4-0.1-0.6-0.2l-4-4.3l1.1-1l4,4.3c0.2,0.2,0.2,0.4,0.2,0.6c0,0.2-0.1,0.4-0.3,0.5C343.5,208.3,343.4,208.4,343.2,208.4z
			"/>
	</g>
</g>
</svg>
